<svg xmlns="http://www.w3.org/2000/svg" width="11.56" height="12.52" viewBox="0 0 11.56 12.52">
  <g id="Delete" transform="translate(0.5 0.5)">
    <path id="Stroke_1" data-name="Stroke 1" d="M8.837,0S8.5,4.194,8.3,5.961A1.393,1.393,0,0,1,6.834,7.314c-1.625.029-3.251.031-4.875,0A1.379,1.379,0,0,1,.534,5.965C.336,4.183,0,0,0,0" transform="translate(0.862 4.183)" fill="none" stroke="#9a5dba" stroke-linecap="round" stroke-linejoin="round" stroke-miterlimit="10" stroke-width="1"/>
    <path id="Stroke_3" data-name="Stroke 3" d="M10.56.5H0" transform="translate(0 1.673)" fill="none" stroke="#9a5dba" stroke-linecap="round" stroke-linejoin="round" stroke-miterlimit="10" stroke-width="1"/>
    <path id="Stroke_5" data-name="Stroke 5" d="M6.491,2.173a1.026,1.026,0,0,1-1.006-.824L5.334.591A.8.8,0,0,0,4.563,0H1.927a.8.8,0,0,0-.77.591l-.151.757A1.026,1.026,0,0,1,0,2.173" transform="translate(2.035 0)" fill="none" stroke="#9a5dba" stroke-linecap="round" stroke-linejoin="round" stroke-miterlimit="10" stroke-width="1"/>
  </g>
</svg>
