<svg xmlns="http://www.w3.org/2000/svg" width="14.009" height="14.009" viewBox="0 0 14.009 14.009">
  <g id="Group_1303" data-name="Group 1303" transform="translate(-269.91 -695.781)">
    <path id="Path_84" data-name="Path 84" d="M7,0a7,7,0,1,0,7,7A7.012,7.012,0,0,0,7,0ZM7,13.188A6.184,6.184,0,1,1,13.188,7,6.191,6.191,0,0,1,7,13.188Zm0,0" transform="translate(269.91 695.781)" fill="#9a5dba"/>
    <path id="Path_85" data-name="Path 85" d="M305.969,141.943a1.454,1.454,0,0,1,2.057,0,.41.41,0,0,0,.58-.581,2.275,2.275,0,0,0-3.218,0h0a.41.41,0,0,0,.581.58Zm0,0" transform="translate(-27.005 558.935)" fill="#9a5dba"/>
    <path id="Path_86" data-name="Path 86" d="M81.034,141.943a1.454,1.454,0,0,1,2.057,0,.41.41,0,1,0,.58-.581,2.275,2.275,0,0,0-3.218,0h0a.41.41,0,0,0,.581.58Zm0,0" transform="translate(191.775 558.935)" fill="#9a5dba"/>
    <path id="Path_87" data-name="Path 87" d="M89.535,243H80.742a.41.41,0,0,0-.41.41,4.807,4.807,0,0,0,9.613,0A.41.41,0,0,0,89.535,243Zm-4.4,4.4a3.984,3.984,0,0,1-3.965-3.575H89.1A3.984,3.984,0,0,1,85.139,247.4Zm0,0" transform="translate(191.776 459.43)" fill="#9a5dba"/>
  </g>
</svg>
