<svg xmlns="http://www.w3.org/2000/svg" width="16.857" height="19.836" viewBox="0 0 16.857 19.836">
  <g id="Location" transform="translate(0.011 0.011)">
    <path id="Path_33958" d="M0,7.652A7.678,7.678,0,1,1,15.357,7.7v.087a11.338,11.338,0,0,1-3.478,7.3,20.183,20.183,0,0,1-3.591,2.957.93.93,0,0,1-1.217,0,19.817,19.817,0,0,1-5.052-4.73A9.826,9.826,0,0,1,0,7.678Z" transform="translate(0.739 0.739)" fill="none" stroke="#9a5dba" stroke-linecap="round" stroke-linejoin="round" stroke-miterlimit="10" stroke-width="1.5"/>
    <path id="Path" d="M2.964,6.8a.555.555,0,1,0,.731.835L5.915,5.69a.555.555,0,0,0,.016-.821L.936.151A.555.555,0,1,0,.174.958l4.551,4.3Z" transform="translate(12.302 6.22) rotate(90)" fill="#9a5dba"/>
  </g>
</svg>
