<svg xmlns="http://www.w3.org/2000/svg" width="136" height="136.001" viewBox="0 0 136 136.001">
  <g id="calendar" transform="translate(-0.228 -0.226)">
    <path id="Path_2350" data-name="Path 2350" d="M68,0A68,68,0,1,1,0,68,68,68,0,0,1,68,0Z" transform="translate(0.228 0.226)" fill="#9a5dba"/>
    <path id="Path_102" data-name="Path 102" d="M227.856,158.764l-31.169-31.169-.958,1.237-7.5-7.539-1.723,8.814,4.684,4.584-21.011,20.285-33.623-33.658-1.917,25.191,21.432,21.27L146,175.907l-21.126,15.808,33.515,33.515c.457.009.914.017,1.374.017A68.114,68.114,0,0,0,227.856,158.764Z" transform="translate(-91.648 -89.02)" fill="#5a366d"/>
    <path id="Path_103" data-name="Path 103" d="M183.614,231.813H124.686a7.459,7.459,0,0,1-7.46-7.46V172.735h73.847v51.618A7.459,7.459,0,0,1,183.614,231.813Z" transform="translate(-86.035 -126.776)" fill="#fff"/>
    <path id="Path_104" data-name="Path 104" d="M255.427,172.735v59.078h29.617a7.459,7.459,0,0,0,7.46-7.46V172.735Z" transform="translate(-187.465 -126.776)" fill="#d0d1d3"/>
    <path id="Path_2351" data-name="Path 2351" d="M0,0H73.847V14.769H0Z" transform="translate(31.191 38.575)" fill="#91c9ee"/>
    <rect id="Rectangle_20" data-name="Rectangle 20" width="37.075" height="14.769" transform="translate(67.963 38.575)" fill="#3fa6eb"/>
    <path id="Path_105" data-name="Path 105" d="M148.674,132h0a3.692,3.692,0,0,1-3.692-3.692v-7.385a3.692,3.692,0,0,1,3.692-3.692h0a3.692,3.692,0,0,1,3.692,3.692V128.3A3.692,3.692,0,0,1,148.674,132Z" transform="translate(-106.406 -86.036)" fill="#2d2d2d"/>
    <path id="Path_106" data-name="Path 106" d="M342.958,132h0a3.692,3.692,0,0,1-3.692-3.692v-7.385a3.692,3.692,0,0,1,3.692-3.692h0a3.692,3.692,0,0,1,3.692,3.692V128.3A3.692,3.692,0,0,1,342.958,132Z" transform="translate(-248.997 -86.036)"/>
    <g id="Group_9" data-name="Group 9" transform="translate(38.576 60.729)">
      <path id="Path_107" data-name="Path 107" d="M148.674,235.63h0a3.692,3.692,0,0,1-3.692-3.692h0a3.692,3.692,0,0,1,3.692-3.692h0a3.692,3.692,0,0,1,3.692,3.692h0A3.692,3.692,0,0,1,148.674,235.63Z" transform="translate(-144.982 -228.246)" fill="#646464"/>
      <path id="Path_108" data-name="Path 108" d="M197.245,235.63h0a3.692,3.692,0,0,1-3.692-3.692h0a3.692,3.692,0,0,1,3.692-3.692h0a3.692,3.692,0,0,1,3.692,3.692h0A3.692,3.692,0,0,1,197.245,235.63Z" transform="translate(-180.63 -228.246)" fill="#646464"/>
      <path id="Path_109" data-name="Path 109" d="M245.816,235.63h0a3.692,3.692,0,0,1-3.692-3.692h0a3.692,3.692,0,0,1,3.692-3.692h0a3.692,3.692,0,0,1,3.692,3.692h0A3.692,3.692,0,0,1,245.816,235.63Z" transform="translate(-216.278 -228.246)" fill="#646464"/>
    </g>
    <g id="Group_10" data-name="Group 10" transform="translate(77.346 60.729)">
      <path id="Path_110" data-name="Path 110" d="M294.387,235.63h0a3.692,3.692,0,0,1-3.692-3.692h0a3.692,3.692,0,0,1,3.692-3.692h0a3.692,3.692,0,0,1,3.692,3.692h0A3.692,3.692,0,0,1,294.387,235.63Z" transform="translate(-290.695 -228.246)" fill="#333"/>
      <path id="Path_111" data-name="Path 111" d="M342.958,235.63h0a3.692,3.692,0,0,1-3.692-3.692h0a3.692,3.692,0,0,1,3.692-3.692h0a3.692,3.692,0,0,1,3.692,3.692h0A3.692,3.692,0,0,1,342.958,235.63Z" transform="translate(-326.343 -228.246)" fill="#333"/>
    </g>
    <g id="Group_11" data-name="Group 11" transform="translate(38.576 70.576)">
      <path id="Path_112" data-name="Path 112" d="M148.674,272.637h0a3.692,3.692,0,0,1-3.692-3.692h0a3.692,3.692,0,0,1,3.692-3.692h0a3.692,3.692,0,0,1,3.692,3.692h0A3.692,3.692,0,0,1,148.674,272.637Z" transform="translate(-144.982 -265.253)" fill="#646464"/>
      <path id="Path_113" data-name="Path 113" d="M197.245,272.637h0a3.692,3.692,0,0,1-3.692-3.692h0a3.692,3.692,0,0,1,3.692-3.692h0a3.692,3.692,0,0,1,3.692,3.692h0A3.692,3.692,0,0,1,197.245,272.637Z" transform="translate(-180.63 -265.253)" fill="#646464"/>
      <path id="Path_114" data-name="Path 114" d="M245.816,272.637h0a3.692,3.692,0,0,1-3.692-3.692h0a3.692,3.692,0,0,1,3.692-3.692h0a3.692,3.692,0,0,1,3.692,3.692h0A3.692,3.692,0,0,1,245.816,272.637Z" transform="translate(-216.278 -265.253)" fill="#646464"/>
    </g>
    <g id="Group_12" data-name="Group 12" transform="translate(77.346 70.576)">
      <path id="Path_115" data-name="Path 115" d="M294.387,272.637h0a3.692,3.692,0,0,1-3.692-3.692h0a3.692,3.692,0,0,1,3.692-3.692h0a3.692,3.692,0,0,1,3.692,3.692h0A3.692,3.692,0,0,1,294.387,272.637Z" transform="translate(-290.695 -265.253)" fill="#333"/>
      <path id="Path_116" data-name="Path 116" d="M342.958,272.637h0a3.692,3.692,0,0,1-3.692-3.692h0a3.692,3.692,0,0,1,3.692-3.692h0a3.692,3.692,0,0,1,3.692,3.692h0A3.692,3.692,0,0,1,342.958,272.637Z" transform="translate(-326.343 -265.253)" fill="#333"/>
    </g>
    <g id="Group_13" data-name="Group 13" transform="translate(38.576 80.421)">
      <path id="Path_117" data-name="Path 117" d="M148.674,309.642h0a3.692,3.692,0,0,1-3.692-3.692h0a3.692,3.692,0,0,1,3.692-3.692h0a3.692,3.692,0,0,1,3.692,3.692h0A3.692,3.692,0,0,1,148.674,309.642Z" transform="translate(-144.982 -302.258)" fill="#646464"/>
      <path id="Path_118" data-name="Path 118" d="M197.245,309.642h0a3.692,3.692,0,0,1-3.692-3.692h0a3.692,3.692,0,0,1,3.692-3.692h0a3.692,3.692,0,0,1,3.692,3.692h0A3.692,3.692,0,0,1,197.245,309.642Z" transform="translate(-180.63 -302.258)" fill="#646464"/>
      <path id="Path_119" data-name="Path 119" d="M245.816,309.642h0a3.692,3.692,0,0,1-3.692-3.692h0a3.692,3.692,0,0,1,3.692-3.692h0a3.692,3.692,0,0,1,3.692,3.692h0A3.692,3.692,0,0,1,245.816,309.642Z" transform="translate(-216.278 -302.258)" fill="#646464"/>
    </g>
    <path id="Path_120" data-name="Path 120" d="M294.387,309.642h0a3.692,3.692,0,0,1-3.692-3.692h0a3.692,3.692,0,0,1,3.692-3.692h0a3.692,3.692,0,0,1,3.692,3.692h0A3.692,3.692,0,0,1,294.387,309.642Z" transform="translate(-213.349 -221.837)" fill="#fff"/>
    <path id="Path_121" data-name="Path 121" d="M342.958,309.642h0a3.692,3.692,0,0,1-3.692-3.692h0a3.692,3.692,0,0,1,3.692-3.692h0a3.692,3.692,0,0,1,3.692,3.692h0A3.692,3.692,0,0,1,342.958,309.642Z" transform="translate(-248.997 -221.837)" fill="#333"/>
    <g id="Group_14" data-name="Group 14" transform="translate(38.576 90.268)">
      <path id="Path_122" data-name="Path 122" d="M148.674,346.65h0a3.692,3.692,0,0,1-3.692-3.692h0a3.692,3.692,0,0,1,3.692-3.692h0a3.692,3.692,0,0,1,3.692,3.692h0A3.692,3.692,0,0,1,148.674,346.65Z" transform="translate(-144.982 -339.266)" fill="#646464"/>
      <path id="Path_123" data-name="Path 123" d="M197.245,346.65h0a3.692,3.692,0,0,1-3.692-3.692h0a3.692,3.692,0,0,1,3.692-3.692h0a3.692,3.692,0,0,1,3.692,3.692h0A3.692,3.692,0,0,1,197.245,346.65Z" transform="translate(-180.63 -339.266)" fill="#646464"/>
      <path id="Path_124" data-name="Path 124" d="M245.816,346.65h0a3.692,3.692,0,0,1-3.692-3.692h0a3.692,3.692,0,0,1,3.692-3.692h0a3.692,3.692,0,0,1,3.692,3.692h0A3.692,3.692,0,0,1,245.816,346.65Z" transform="translate(-216.278 -339.266)" fill="#646464"/>
    </g>
    <g id="Group_15" data-name="Group 15" transform="translate(67.962 60.729)">
      <path id="Path_125" data-name="Path 125" d="M255.58,228.245c-.051,0-.1.006-.153.008v7.369c.051,0,.1.008.153.008a3.692,3.692,0,0,0,3.692-3.692h0A3.692,3.692,0,0,0,255.58,228.245Z" transform="translate(-255.427 -228.245)" fill="#333"/>
      <path id="Path_126" data-name="Path 126" d="M255.58,265.252c-.051,0-.1.006-.153.008v7.369c.051,0,.1.008.153.008a3.692,3.692,0,0,0,3.692-3.692h0A3.692,3.692,0,0,0,255.58,265.252Z" transform="translate(-255.427 -255.406)" fill="#333"/>
      <path id="Path_127" data-name="Path 127" d="M255.58,302.258c-.051,0-.1.006-.153.008v7.369c.051,0,.1.008.153.008a3.692,3.692,0,1,0,0-7.384Z" transform="translate(-255.427 -282.565)" fill="#333"/>
      <path id="Path_128" data-name="Path 128" d="M255.58,339.265c-.051,0-.1.006-.153.008v7.369c.051,0,.1.008.153.008a3.692,3.692,0,1,0,0-7.384Z" transform="translate(-255.427 -309.726)" fill="#333"/>
      <path id="Path_129" data-name="Path 129" d="M294.387,346.65h0a3.692,3.692,0,0,1-3.692-3.692h0a3.692,3.692,0,0,1,3.692-3.692h0a3.692,3.692,0,0,1,3.692,3.692h0A3.692,3.692,0,0,1,294.387,346.65Z" transform="translate(-281.311 -309.727)" fill="#333"/>
      <path id="Path_130" data-name="Path 130" d="M342.958,346.65h0a3.692,3.692,0,0,1-3.692-3.692h0a3.692,3.692,0,0,1,3.692-3.692h0a3.692,3.692,0,0,1,3.692,3.692h0A3.692,3.692,0,0,1,342.958,346.65Z" transform="translate(-316.959 -309.727)" fill="#333"/>
    </g>
    <path id="Path_131" data-name="Path 131" d="M273.574,296.375a11.238,11.238,0,1,1,11.238-11.238A11.25,11.25,0,0,1,273.574,296.375Zm0-19.723a8.485,8.485,0,1,0,8.485,8.485A8.5,8.5,0,0,0,273.574,276.652Z" transform="translate(-192.536 -201.024)" fill="#ff4189"/>
  </g>
</svg>
