<svg xmlns="http://www.w3.org/2000/svg" width="172" height="172" viewBox="0 0 172 172">
  <g id="no_journal_search_result" transform="translate(0.185 0.48)">
    <circle id="Ellipse_72" data-name="Ellipse 72" cx="86" cy="86" r="86" transform="translate(-0.185 -0.48)" fill="#9a5dba"/>
    <path id="Path_431" data-name="Path 431" d="M178.036,249.9a85.849,85.849,0,0,0,71.621-74.379L193.51,119.374l-42.689,41.753-32.483,24.96,17.37,17.228-2.453,1.8Z" transform="translate(-78.761 -79.449)" fill="#5a366d"/>
    <path id="Path_432" data-name="Path 432" d="M186.394,183.99H119.176a5.4,5.4,0,0,1-5.4-5.4V119.176a5.4,5.4,0,0,1,5.4-5.4h67.218a5.4,5.4,0,0,1,5.4,5.4v59.416A5.4,5.4,0,0,1,186.394,183.99Z" transform="translate(-75.729 -75.729)" fill="#d0d1d3"/>
    <path id="Path_433" data-name="Path 433" d="M263.087,113.778H229.136V183.99h33.951a5.4,5.4,0,0,0,5.4-5.4V119.176A5.4,5.4,0,0,0,263.087,113.778Z" transform="translate(-152.423 -75.729)" fill="#a6a8aa"/>
    <g id="Group_42" data-name="Group 42" transform="translate(38.049 38.049)">
      <path id="Path_434" data-name="Path 434" d="M191.792,119.176a5.4,5.4,0,0,0-5.4-5.4H119.176a5.4,5.4,0,0,0-5.4,5.4v5.689h78.014Z" transform="translate(-113.778 -113.778)" fill="#ff4189"/>
      <path id="Path_435" data-name="Path 435" d="M268.485,119.176a5.4,5.4,0,0,0-5.4-5.4H229.136v11.087h39.349v-5.689Z" transform="translate(-190.472 -113.778)" fill="#df3877"/>
    </g>
    <line id="Line_84" data-name="Line 84" x2="18" transform="translate(43.984 57.116)" fill="none" stroke="#2d2d2d" stroke-linecap="round" stroke-width="1"/>
    <line id="Line_87" data-name="Line 87" x2="18" transform="translate(44.043 73.096)" fill="none" stroke="#2d2d2d" stroke-linecap="round" stroke-width="1"/>
    <line id="Line_83" data-name="Line 83" x2="16" transform="translate(43.984 61.116)" fill="none" stroke="#2d2d2d" stroke-linecap="round" stroke-width="1"/>
    <line id="Line_86" data-name="Line 86" x2="16" transform="translate(44.043 77.096)" fill="none" stroke="#2d2d2d" stroke-linecap="round" stroke-width="1"/>
    <line id="Line_82" data-name="Line 82" x2="17" transform="translate(43.984 65.116)" fill="none" stroke="#2d2d2d" stroke-linecap="round" stroke-width="1"/>
    <line id="Line_85" data-name="Line 85" x2="17" transform="translate(44.043 81.096)" fill="none" stroke="#2d2d2d" stroke-linecap="round" stroke-width="1"/>
    <path id="Path_436" data-name="Path 436" d="M113.95,309.391a5.394,5.394,0,0,0,5.34,4.649h67.218a5.394,5.394,0,0,0,5.34-4.649Z" transform="translate(-75.844 -205.779)" fill="#ff4189"/>
    <path id="Path_439" data-name="Path 439" d="M230.956,240.879H163.738a5.4,5.4,0,0,1-5.4-5.4V176.064a5.4,5.4,0,0,1,5.4-5.4h67.218a5.4,5.4,0,0,1,5.4,5.4V235.48A5.4,5.4,0,0,1,230.956,240.879Z" transform="translate(-105.355 -113.55)" fill="#fff"/>
    <path id="Path_440" data-name="Path 440" d="M308.109,170.667h-33.72v70.212h33.72a5.4,5.4,0,0,0,5.4-5.4V176.065A5.4,5.4,0,0,0,308.109,170.667Z" transform="translate(-182.509 -113.551)" fill="#d0d1d3"/>
    <path id="Path_441" data-name="Path 441" d="M236.354,176.064a5.4,5.4,0,0,0-5.4-5.4H163.738a5.4,5.4,0,0,0-5.4,5.4v5.689h78.014v-5.689Z" transform="translate(-105.355 -113.55)" fill="#91c9ee"/>
    <path id="Path_442" data-name="Path 442" d="M313.507,176.064a5.4,5.4,0,0,0-5.4-5.4h-33.72v11.087h39.118v-5.689Z" transform="translate(-182.509 -113.55)" fill="#3fa6eb"/>
    <path id="Path_443" data-name="Path 443" d="M158.513,366.278a5.394,5.394,0,0,0,5.34,4.649h67.218a5.394,5.394,0,0,0,5.34-4.649Z" transform="translate(-105.47 -243.599)" fill="#91c9ee"/>
    <path id="Path_444" data-name="Path 444" d="M274.389,366.278v4.649h33.72a5.394,5.394,0,0,0,5.34-4.649Z" transform="translate(-182.509 -243.599)" fill="#3fa6eb"/>
    <path id="Path_447" data-name="Path 447" d="M310.233,367.122h0a7.043,7.043,0,0,1-9.961,0L280.351,347.2a7.043,7.043,0,0,1,0-9.96h0a7.043,7.043,0,0,1,9.96,0l19.921,19.921A7.043,7.043,0,0,1,310.233,367.122Z" transform="translate(-185.101 -222.923)" fill="#273b7a"/>
    <path id="Path_448" data-name="Path 448" d="M280.352,351.342l19.921,19.921a7.042,7.042,0,0,0,9.935.022l-29.88-29.879A7.042,7.042,0,0,0,280.352,351.342Z" transform="translate(-185.102 -227.064)" fill="#121149"/>
    <path id="Path_449" data-name="Path 449" d="M235.183,262.189a21.13,21.13,0,0,0-29.882,0l-.023.024a21.129,21.129,0,0,0,29.88,29.881l.025-.024A21.129,21.129,0,0,0,235.183,262.189Z" transform="translate(-132.463 -170.283)" fill="#71e2ef"/>
    <path id="Path_450" data-name="Path 450" d="M205.276,274.537a21.129,21.129,0,0,0,29.88,29.881Z" transform="translate(-132.461 -182.607)" fill="#38c6d9"/>
    <path id="Path_451" data-name="Path 451" d="M213.96,295.144a24.3,24.3,0,1,1,17.188-7.109A24.231,24.231,0,0,1,213.96,295.144Zm0-42.24a17.943,17.943,0,1,0,12.694,5.249A17.9,17.9,0,0,0,213.96,252.9Z" transform="translate(-126.181 -164.001)" fill="#386895"/>
    <path id="Path_452" data-name="Path 452" d="M226.63,297.715a17.951,17.951,0,0,1-25.387-25.387l-4.494-4.494a24.307,24.307,0,0,0,34.374,34.375Z" transform="translate(-126.181 -178.15)" fill="#273b7a"/>
    <line id="Line_79" data-name="Line 79" x2="18" transform="translate(59.316 76.02)" fill="none" stroke="#2d2d2d" stroke-linecap="round" stroke-width="1"/>
    <line id="Line_80" data-name="Line 80" x2="16" transform="translate(59.316 80.02)" fill="none" stroke="#2d2d2d" stroke-linecap="round" stroke-width="1"/>
    <line id="Line_81" data-name="Line 81" x2="17" transform="translate(59.316 84.02)" fill="none" stroke="#2d2d2d" stroke-linecap="round" stroke-width="1"/>
  </g>
</svg>
