<svg id="Group_83" data-name="Group 83" xmlns="http://www.w3.org/2000/svg" width="15.004" height="15.004" viewBox="0 0 15.004 15.004">
  <path id="sad" d="M7.5,15A7.5,7.5,0,0,1,2.2,2.2,7.5,7.5,0,0,1,12.807,12.807,7.453,7.453,0,0,1,7.5,15Zm0-13.832a6.33,6.33,0,1,0,6.33,6.33A6.337,6.337,0,0,0,7.5,1.172ZM4.923,4.835a.733.733,0,1,1-.733.733A.733.733,0,0,1,4.923,4.835Zm4.4.733a.733.733,0,1,0,.733-.733A.733.733,0,0,0,9.319,5.568Z" transform="translate(0 0)" fill="#9a5dba"/>
  <line id="Line_5" data-name="Line 5" x2="4.597" transform="translate(5.203 9.832)" fill="none" stroke="#9a5dba" stroke-linecap="round" stroke-width="1"/>
</svg>
