<svg xmlns="http://www.w3.org/2000/svg" width="15.126" height="15.126" viewBox="0 0 15.126 15.126">
  <path id="sad" d="M7.563,15.126A7.563,7.563,0,0,1,2.215,2.215a7.563,7.563,0,0,1,10.7,10.7,7.514,7.514,0,0,1-5.348,2.215Zm0-13.944a6.381,6.381,0,1,0,6.381,6.381A6.388,6.388,0,0,0,7.563,1.182Zm2.951,9.284a3.8,3.8,0,0,0-2.98-1.692,3.8,3.8,0,0,0-2.98,1.692.591.591,0,0,0,1,.634A2.6,2.6,0,0,1,7.534,9.956,2.6,2.6,0,0,1,9.517,11.1a.591.591,0,0,0,1-.634ZM4.963,4.875a.739.739,0,1,1-.739.739A.739.739,0,0,1,4.963,4.875Zm4.431.739a.739.739,0,1,0,.739-.739A.739.739,0,0,0,9.395,5.613Z" fill="#9a5dba"/>
</svg>
