<svg xmlns="http://www.w3.org/2000/svg" xmlns:xlink="http://www.w3.org/1999/xlink" width="278.582" height="213" viewBox="0 0 278.582 213">
  <defs>
    <linearGradient id="linear-gradient" x1="0.5" x2="0.5" y2="1" gradientUnits="objectBoundingBox">
      <stop offset="0" stop-color="#91c9ee"/>
      <stop offset="0.766" stop-color="#c192da"/>
      <stop offset="1" stop-color="#9a5dba"/>
    </linearGradient>
  </defs>
  <g id="Login-bro_1_" data-name="Login-bro (1)" transform="translate(-44.828 -88.787)">
    <g id="freepik--background-simple--inject-2" transform="translate(44.828 88.787)">
      <path id="Path_921" data-name="Path 921" d="M255.849,117.283S228.581,87.407,185.41,88.836s-80,30.377-110.441,53.026S36.363,199.69,54.061,227.155s45.9,15.9,81.8,33.73,42.724,27.952,82.719,23.617,70.439-48.671,65.9-95.9S255.849,117.283,255.849,117.283Z" transform="translate(-44.828 -88.787)" fill="#f3f3f3"/>
      <path id="Path_922" data-name="Path 922" d="M255.849,117.283S228.581,87.407,185.41,88.836s-80,30.377-110.441,53.026S36.363,199.69,54.061,227.155s45.9,15.9,81.8,33.73,42.724,27.952,82.719,23.617,70.439-48.671,65.9-95.9S255.849,117.283,255.849,117.283Z" transform="translate(-44.828 -88.787)" fill="#e0bfea" opacity="0.35"/>
    </g>
    <g id="freepik--Floor--inject-2" transform="translate(54.495 287.116)">
      <ellipse id="Ellipse_80" data-name="Ellipse 80" cx="134.458" cy="7.335" rx="134.458" ry="7.335" fill="#e0bfea"/>
      <path id="Path_975" data-name="Path 975" d="M134.458,0c74.259,0,134.458,3.284,134.458,7.335s-60.2,7.335-134.458,7.335S0,11.386,0,7.335,60.2,0,134.458,0Z" fill="#e0bfea" opacity="0.55"/>
    </g>
    <g id="freepik--Plants--inject-2" transform="translate(218.076 166.738)">
      <path id="Path_923" data-name="Path 923" d="M374.939,225.557c-.041,0,.467-2.526.522-2.709.582-1.8,2.777-4.944,4.9-4.938a2.513,2.513,0,0,1,2.418,2.851c-.156,1.5-1.5,2.763-2.709,3.5C378.644,225.15,374.939,225.557,374.939,225.557Z" transform="translate(-324.602 -208.405)" fill="#c192da"/>
      <path id="Path_924" data-name="Path 924" d="M363.206,204.021c2,.718,2.994,4.416,2.926,6.312,0,.163-.379,2.709-.413,2.709h-.041c.156.582.325,1.212.494,1.9.3,1.273.623,2.709.874,4.308a44.573,44.573,0,0,1,.569,5.181,32.723,32.723,0,0,1-.2,5.825.2.2,0,0,0,0,.068c.264-.562,1.043-2.12,1.118-2.235,1.043-1.585,3.983-4.064,6.035-3.468A2.513,2.513,0,0,1,376.143,228a5.247,5.247,0,0,1-3.529,2.655c-1.537.44-4.965-.081-5.236-.122a43.984,43.984,0,0,1-1.26,5.8q-.474,1.666-1.03,3.332c.237-.481.461-.908.494-.969,1.043-1.585,3.983-4.064,6.035-3.475a2.506,2.506,0,0,1,1.571,3.387c-.542,1.4-2.167,2.269-3.529,2.662s-4.314,0-5.087-.1c-.142.42-.284.847-.433,1.267-.677,2.032-1.409,4.064-2.032,6.055-.224.677-.42,1.409-.616,2.113.217-.427.4-.786.433-.833,1.036-1.585,3.983-4.064,6.028-3.475a2.52,2.52,0,0,1,1.578,3.387c-.542,1.4-2.174,2.269-3.536,2.655a15.648,15.648,0,0,1-4.944-.081c-.183.731-.359,1.456-.5,2.167-.088.488-.2.955-.264,1.449s-.135.975-.2,1.449c-.095.928-.2,1.89-.271,2.8-.054.63-.095,1.233-.135,1.835.21-.677.677-2.073.711-2.188a9.821,9.821,0,0,1,3.251-3.7,2.609,2.609,0,0,1,.278-.481,2.513,2.513,0,0,1,3.691-.582c1.612,1.355,1.206,5.2.467,6.949-.041.1-.643,1.165-1.03,1.829.291-.352.562-.677.867-1.07.589-.718,1.2-1.422,1.849-2.181l1-1.077c.325-.373.718-.718,1.077-1.077.847-.82,1.747-1.612,2.675-2.391a16.3,16.3,0,0,1-3.488-3.664c-.637-1.273-1.09-3.055-.427-4.4a2.513,2.513,0,0,1,3.569-1.131c1.795,1.124,1.978,4.951,1.51,6.773,0,.115-.515,1.4-.792,2.093.562-.461,1.118-.928,1.7-1.355,1.68-1.3,3.42-2.56,5.148-3.827l1.578-1.172c-.223-.183-2.906-2.35-3.624-3.773-.63-1.267-1.09-3.055-.427-4.4a2.52,2.52,0,0,1,3.569-1.131c1.795,1.131,1.978,4.958,1.51,6.773-.034.142-.732,1.984-.935,2.445,1.158-.867,2.3-1.734,3.386-2.635a43.842,43.842,0,0,0,4.2-3.915c-.1-.081-2.912-2.33-3.644-3.793a5.239,5.239,0,0,1-.427-4.4,2.506,2.506,0,0,1,3.563-1.131c1.8,1.124,1.984,4.951,1.517,6.773-.034.115-.562,1.524-.833,2.188l.108.061a32.428,32.428,0,0,0,3.447-4.633c.562-.894,1.057-1.781,1.517-2.662-.569-.366-3.136-2.032-3.942-3.305a5.19,5.19,0,0,1-.908-4.321,2.513,2.513,0,0,1,3.386-1.517c1.917.921,2.513,4.707,2.249,6.583,0,.1-.271,1.124-.467,1.869.2-.4.413-.806.6-1.192.677-1.449,1.253-2.818,1.727-4.064.271-.677.494-1.355.677-1.917-.373-.677-1.822-3.285-1.964-4.741a5.193,5.193,0,0,1,1.192-4.26,2.513,2.513,0,0,1,3.732.237c1.273,1.7.061,5.33-1.036,6.881-.095.129-1.822,2.032-1.842,2.032v-.041c-.19.576-.393,1.192-.637,1.856-.447,1.226-.975,2.614-1.639,4.064a45.3,45.3,0,0,1-2.391,4.633,32.869,32.869,0,0,1-3.386,4.741l-.047.054c.528-.332,2.032-1.192,2.161-1.246,1.747-.745,5.554-1.172,6.949.434a2.52,2.52,0,0,1-.555,3.7c-1.226.867-3.068.677-4.416.264-1.524-.481-4.064-2.8-4.3-2.987a43.934,43.934,0,0,1-4.247,4.138c-.88.759-1.781,1.49-2.709,2.208.467-.264.887-.5.948-.528,1.741-.745,5.547-1.172,6.942.434a2.513,2.513,0,0,1-.555,3.7c-1.219.867-3.061.677-4.409.264a16.436,16.436,0,0,1-4.186-2.885l-1.063.82c-1.707,1.307-3.386,2.6-5.046,3.922-.576.467-1.124.948-1.68,1.422.42-.237.765-.434.826-.454,1.741-.752,5.547-1.172,6.942.427a2.506,2.506,0,0,1-.555,3.7c-1.226.867-3.061.677-4.409.271a14.707,14.707,0,0,1-4.064-2.8c-.549.508-1.1,1.009-1.612,1.531-.345.359-.677.677-1.016,1.063s-.677.731-.975,1.1c-.589.718-1.206,1.463-1.768,2.181-.393.494-.759.975-1.124,1.456.562-.467,1.7-1.355,1.8-1.429,1.605-1,5.3-2,6.929-.63a2.52,2.52,0,0,1,0,3.745,5.27,5.27,0,0,1-4.314.935,16.5,16.5,0,0,1-4.68-2.289c-.61.8-1.192,1.585-1.734,2.337-1.876,2.594-3.339,4.822-4.341,6.4l-.1.156-1.3-.63c.068-.1.135-.2.2-.3,1.05-1.571,2.581-3.793,4.531-6.373.616-.813,1.287-1.673,1.984-2.553a27.092,27.092,0,0,1-2.032-2.492,18.544,18.544,0,0,1-5.005.61c-.061,1-.115,1.978-.156,2.9-.135,3.2-.122,5.872-.088,7.735v.224l-1.429-.677c0-1.849.074-4.362.264-7.322.061-1.023.149-2.113.251-3.224-.4-.1-3.63-.935-4.849-1.91a5.248,5.248,0,0,1-2.228-3.813,2.506,2.506,0,0,1,2.763-2.52c2.106.271,3.867,3.671,4.22,5.534,0,.108.108,1.355.149,2.1.047-.461.081-.9.129-1.355.095-.928.217-1.856.345-2.851.074-.474.156-.955.23-1.443s.2-.989.3-1.49c.257-1.151.569-2.31.914-3.468a16.863,16.863,0,0,1-4.931-1.131,5.2,5.2,0,0,1-2.777-3.434,2.506,2.506,0,0,1,2.35-2.912c2.12-.054,4.382,3.041,5.005,4.829.041.115.345,1.449.494,2.188.217-.677.42-1.4.677-2.086.677-2.032,1.443-4.023,2.188-6.035.23-.616.447-1.233.677-1.842a16.7,16.7,0,0,1-5.107-1.151,5.209,5.209,0,0,1-2.784-3.434,2.52,2.52,0,0,1,2.35-2.912c2.127-.054,4.389,3.041,5.012,4.829.047.135.481,2.032.569,2.553.488-1.355.969-2.709,1.355-4.064a43.917,43.917,0,0,0,1.355-5.581c-.135,0-3.725-.339-5.134-1.151a5.171,5.171,0,0,1-2.784-3.434,2.52,2.52,0,0,1,2.35-2.912c2.12-.047,4.382,3.041,5.005,4.829.041.122.373,1.585.515,2.283h.122a32.414,32.414,0,0,0,.325-5.764,29.53,29.53,0,0,0-.2-3.061,17.437,17.437,0,0,1-5.107-.582,5.17,5.17,0,0,1-3.149-3.109,2.513,2.513,0,0,1,2.032-3.149c2.106-.284,4.694,2.54,5.513,4.253.041.095.393,1.09.63,1.815-.047-.44-.095-.9-.156-1.321-.21-1.592-.508-3.041-.779-4.314-.163-.725-.318-1.355-.474-1.984a16.636,16.636,0,0,1-4.247-2.865,5.207,5.207,0,0,1-1.355-4.206,2.513,2.513,0,0,1,3.292-1.822Z" transform="translate(-316.98 -203.877)" fill="#c192da"/>
      <path id="Path_925" data-name="Path 925" d="M423.178,249.761c-1.659-.068-4.978-1.768-4.978-1.775s1.781-1.842,1.91-1.944c1.483-1.185,5.046-2.594,6.814-1.422a2.52,2.52,0,0,1,.44,3.718A5.333,5.333,0,0,1,423.178,249.761Z" transform="translate(-338.563 -216.883)" fill="#c192da"/>
      <g id="Group_958" data-name="Group 958" transform="translate(34.338 -10)" opacity="0.5">
        <path id="Path_926" data-name="Path 926" d="M374.939,225.557c-.041,0,.467-2.526.522-2.709.582-1.8,2.777-4.944,4.9-4.938a2.513,2.513,0,0,1,2.418,2.851c-.156,1.5-1.5,2.763-2.709,3.5C378.644,225.15,374.939,225.557,374.939,225.557Z" transform="translate(-358.94 -208.405)" fill="#fff"/>
        <path id="Path_927" data-name="Path 927" d="M363.206,204.021c2,.718,2.994,4.416,2.926,6.312,0,.163-.379,2.709-.413,2.709h-.041c.156.582.325,1.212.494,1.9.3,1.273.623,2.709.874,4.308a44.573,44.573,0,0,1,.569,5.181,32.723,32.723,0,0,1-.2,5.825.2.2,0,0,0,0,.068c.264-.562,1.043-2.12,1.118-2.235,1.043-1.585,3.983-4.064,6.035-3.468A2.513,2.513,0,0,1,376.143,228a5.247,5.247,0,0,1-3.529,2.655c-1.537.44-4.965-.081-5.236-.122a43.984,43.984,0,0,1-1.26,5.8q-.474,1.666-1.03,3.332c.237-.481.461-.908.494-.969,1.043-1.585,3.983-4.064,6.035-3.475a2.506,2.506,0,0,1,1.571,3.387c-.542,1.4-2.167,2.269-3.529,2.662s-4.314,0-5.087-.1c-.142.42-.284.847-.433,1.267-.677,2.032-1.409,4.064-2.032,6.055-.224.677-.42,1.409-.616,2.113.217-.427.4-.786.433-.833,1.036-1.585,3.983-4.064,6.028-3.475a2.52,2.52,0,0,1,1.578,3.387c-.542,1.4-2.174,2.269-3.536,2.655a15.648,15.648,0,0,1-4.944-.081c-.183.731-.359,1.456-.5,2.167-.088.488-.2.955-.264,1.449s-.135.975-.2,1.449c-.095.928-.2,1.89-.271,2.8-.054.63-.095,1.233-.135,1.835.21-.677.677-2.073.711-2.188a9.821,9.821,0,0,1,3.251-3.7,2.609,2.609,0,0,1,.278-.481,2.513,2.513,0,0,1,3.691-.582c1.612,1.355,1.206,5.2.467,6.949-.041.1-.643,1.165-1.03,1.829.291-.352.562-.677.867-1.07.589-.718,1.2-1.422,1.849-2.181l1-1.077c.325-.373.718-.718,1.077-1.077.847-.82,1.747-1.612,2.675-2.391a16.3,16.3,0,0,1-3.488-3.664c-.637-1.273-1.09-3.055-.427-4.4a2.513,2.513,0,0,1,3.569-1.131c1.795,1.124,1.978,4.951,1.51,6.773,0,.115-.515,1.4-.792,2.093.562-.461,1.118-.928,1.7-1.355,1.68-1.3,3.42-2.56,5.148-3.827l1.578-1.172c-.223-.183-2.906-2.35-3.624-3.773-.63-1.267-1.09-3.055-.427-4.4a2.52,2.52,0,0,1,3.569-1.131c1.795,1.131,1.978,4.958,1.51,6.773-.034.142-.732,1.984-.935,2.445,1.158-.867,2.3-1.734,3.386-2.635a43.842,43.842,0,0,0,4.2-3.915c-.1-.081-2.912-2.33-3.644-3.793a5.239,5.239,0,0,1-.427-4.4,2.506,2.506,0,0,1,3.563-1.131c1.8,1.124,1.984,4.951,1.517,6.773-.034.115-.562,1.524-.833,2.188l.108.061a32.428,32.428,0,0,0,3.447-4.633c.562-.894,1.057-1.781,1.517-2.662-.569-.366-3.136-2.032-3.942-3.305a5.19,5.19,0,0,1-.908-4.321,2.513,2.513,0,0,1,3.386-1.517c1.917.921,2.513,4.707,2.249,6.583,0,.1-.271,1.124-.467,1.869.2-.4.413-.806.6-1.192.677-1.449,1.253-2.818,1.727-4.064.271-.677.494-1.355.677-1.917-.373-.677-1.822-3.285-1.964-4.741a5.193,5.193,0,0,1,1.192-4.26,2.513,2.513,0,0,1,3.732.237c1.273,1.7.061,5.33-1.036,6.881-.095.129-1.822,2.032-1.842,2.032v-.041c-.19.576-.393,1.192-.637,1.856-.447,1.226-.975,2.614-1.639,4.064a45.3,45.3,0,0,1-2.391,4.633,32.869,32.869,0,0,1-3.386,4.741l-.047.054c.528-.332,2.032-1.192,2.161-1.246,1.747-.745,5.554-1.172,6.949.434a2.52,2.52,0,0,1-.555,3.7c-1.226.867-3.068.677-4.416.264-1.524-.481-4.064-2.8-4.3-2.987a43.934,43.934,0,0,1-4.247,4.138c-.88.759-1.781,1.49-2.709,2.208.467-.264.887-.5.948-.528,1.741-.745,5.547-1.172,6.942.434a2.513,2.513,0,0,1-.555,3.7c-1.219.867-3.061.677-4.409.264a16.436,16.436,0,0,1-4.186-2.885l-1.063.82c-1.707,1.307-3.386,2.6-5.046,3.922-.576.467-1.124.948-1.68,1.422.42-.237.765-.434.826-.454,1.741-.752,5.547-1.172,6.942.427a2.506,2.506,0,0,1-.555,3.7c-1.226.867-3.061.677-4.409.271a14.707,14.707,0,0,1-4.064-2.8c-.549.508-1.1,1.009-1.612,1.531-.345.359-.677.677-1.016,1.063s-.677.731-.975,1.1c-.589.718-1.206,1.463-1.768,2.181-.393.494-.759.975-1.124,1.456.562-.467,1.7-1.355,1.8-1.429,1.605-1,5.3-2,6.929-.63a2.52,2.52,0,0,1,0,3.745,5.27,5.27,0,0,1-4.314.935,16.5,16.5,0,0,1-4.68-2.289c-.61.8-1.192,1.585-1.734,2.337-1.876,2.594-3.339,4.822-4.341,6.4l-.1.156-1.3-.63c.068-.1.135-.2.2-.3,1.05-1.571,2.581-3.793,4.531-6.373.616-.813,1.287-1.673,1.984-2.553a27.092,27.092,0,0,1-2.032-2.492,18.544,18.544,0,0,1-5.005.61c-.061,1-.115,1.978-.156,2.9-.135,3.2-.122,5.872-.088,7.735v.224l-1.429-.677c0-1.849.074-4.362.264-7.322.061-1.023.149-2.113.251-3.224-.4-.1-3.63-.935-4.849-1.91a5.248,5.248,0,0,1-2.228-3.813,2.506,2.506,0,0,1,2.763-2.52c2.106.271,3.867,3.671,4.22,5.534,0,.108.108,1.355.149,2.1.047-.461.081-.9.129-1.355.095-.928.217-1.856.345-2.851.074-.474.156-.955.23-1.443s.2-.989.3-1.49c.257-1.151.569-2.31.914-3.468a16.863,16.863,0,0,1-4.931-1.131,5.2,5.2,0,0,1-2.777-3.434,2.506,2.506,0,0,1,2.35-2.912c2.12-.054,4.382,3.041,5.005,4.829.041.115.345,1.449.494,2.188.217-.677.42-1.4.677-2.086.677-2.032,1.443-4.023,2.188-6.035.23-.616.447-1.233.677-1.842a16.7,16.7,0,0,1-5.107-1.151,5.209,5.209,0,0,1-2.784-3.434,2.52,2.52,0,0,1,2.35-2.912c2.127-.054,4.389,3.041,5.012,4.829.047.135.481,2.032.569,2.553.488-1.355.969-2.709,1.355-4.064a43.917,43.917,0,0,0,1.355-5.581c-.135,0-3.725-.339-5.134-1.151a5.171,5.171,0,0,1-2.784-3.434,2.52,2.52,0,0,1,2.35-2.912c2.12-.047,4.382,3.041,5.005,4.829.041.122.373,1.585.515,2.283h.122a32.414,32.414,0,0,0,.325-5.764,29.53,29.53,0,0,0-.2-3.061,17.437,17.437,0,0,1-5.107-.582,5.17,5.17,0,0,1-3.149-3.109,2.513,2.513,0,0,1,2.032-3.149c2.106-.284,4.694,2.54,5.513,4.253.041.095.393,1.09.63,1.815-.047-.44-.095-.9-.156-1.321-.21-1.592-.508-3.041-.779-4.314-.163-.725-.318-1.355-.474-1.984a16.636,16.636,0,0,1-4.247-2.865,5.207,5.207,0,0,1-1.355-4.206,2.513,2.513,0,0,1,3.292-1.822Z" transform="translate(-351.318 -193.877)" fill="#c192da"/>
        <path id="Path_928" data-name="Path 928" d="M423.178,249.761c-1.659-.068-4.978-1.768-4.978-1.775s1.781-1.842,1.91-1.944c1.483-1.185,5.046-2.594,6.814-1.422a2.52,2.52,0,0,1,.44,3.718A5.333,5.333,0,0,1,423.178,249.761Z" transform="translate(-372.901 -216.883)" fill="#c192da"/>
      </g>
      <path id="Path_929" data-name="Path 929" d="M365.858,302.7s-10.071-24.281-15.707-23.225,9.652,38.7,9.652,38.7S342.084,284.75,330,284.75s4.43,36.947,19.73,49.26c0,0-24.159-26.035-38.254-20.407s28.189,32.016,28.189,32.016-24.566-7.742-21.748-1.761,10.471,7.037,10.471,7.037L300.62,352.3h96.651l-21.748-2.113s22.554-11.257,16.513-15.828-19.33,5.276-19.33,5.276,22.954-25.331,18.524-34.834-24.166,17.244-24.166,17.244,16.113-34.129,12.869-40.11S365.858,302.7,365.858,302.7Z" transform="translate(-300.62 -228.261)" fill="#e0bfea"/>
      <path id="Path_930" data-name="Path 930" d="M365.858,302.7s-10.071-24.281-15.707-23.225,9.652,38.7,9.652,38.7S342.084,284.75,330,284.75s4.43,36.947,19.73,49.26c0,0-24.159-26.035-38.254-20.407s28.189,32.016,28.189,32.016-24.566-7.742-21.748-1.761,10.471,7.037,10.471,7.037L300.62,352.3h96.651l-21.748-2.113s22.554-11.257,16.513-15.828-19.33,5.276-19.33,5.276,22.954-25.331,18.524-34.834-24.166,17.244-24.166,17.244,16.113-34.129,12.869-40.11S365.858,302.7,365.858,302.7Z" transform="translate(-300.62 -228.261)" fill="#e0bfea" opacity="0.4"/>
      <path id="Path_931" data-name="Path 931" d="M397.476,315.66c-8.866,26.178-8.866,44.7-8.866,44.7s10.471.4,21.349-7.653" transform="translate(-329.014 -239.949)" fill="none" stroke="#263238" stroke-linecap="round" stroke-linejoin="round" stroke-width="1"/>
      <path id="Path_932" data-name="Path 932" d="M391.7,325.541a157.479,157.479,0,0,0-7.254-22.961" transform="translate(-327.672 -235.728)" fill="none" stroke="#263238" stroke-linecap="round" stroke-linejoin="round" stroke-width="1"/>
      <path id="Path_933" data-name="Path 933" d="M356.51,313.88,379.057,347.3s15.307-12.869,20.543-20.136" transform="translate(-318.656 -239.375)" fill="none" stroke="#263238" stroke-linecap="round" stroke-linejoin="round" stroke-width="1"/>
      <path id="Path_934" data-name="Path 934" d="M373.285,366.7s-23.76-11.277-33.425-17.7" transform="translate(-313.283 -250.708)" fill="none" stroke="#263238" stroke-linecap="round" stroke-linejoin="round" stroke-width="1"/>
    </g>
    <g id="freepik--Device--inject-2" transform="translate(172.758 102.477)">
      <rect id="Rectangle_4995" data-name="Rectangle 4995" width="83.091" height="188.303" rx="7.92" transform="translate(6.265)" fill="#fff" stroke="#263238" stroke-linecap="round" stroke-linejoin="round" stroke-width="1"/>
      <path id="Path_935" data-name="Path 935" d="M361.014,149.605a1.1,1.1,0,0,1-1.1-1.1V133.7a1.111,1.111,0,0,1,2.215,0v14.772a1.111,1.111,0,0,1-1.111,1.131Z" transform="translate(-274.435 -116.641)" fill="#26242e"/>
      <path id="Path_936" data-name="Path 936" d="M361.014,172.956a1.1,1.1,0,0,1-1.1-1.1v-8.27a1.111,1.111,0,0,1,2.215,0v8.27A1.111,1.111,0,0,1,361.014,172.956Z" transform="translate(-274.435 -126.283)" fill="#26242e"/>
      <rect id="Rectangle_4996" data-name="Rectangle 4996" width="83.091" height="188.303" rx="7.92" fill="#26242e" stroke="#263238" stroke-linecap="round" stroke-linejoin="round" stroke-width="1"/>
      <path id="Path_974" data-name="Path 974" d="M0,0H72.024V161.509H0Z" transform="translate(5.534 12.537)" fill="url(#linear-gradient)"/>
      <line id="Line_218" data-name="Line 218" x2="19.174" transform="translate(30.851 7.376)" fill="none" stroke="#fff" stroke-linecap="round" stroke-linejoin="round" stroke-width="3"/>
      <path id="Path_937" data-name="Path 937" d="M289.481,373.268a1.909,1.909,0,1,1-1.849-2.4A2.172,2.172,0,0,1,289.481,373.268Z" transform="translate(-250.516 -193.505)" fill="#fff"/>
      <ellipse id="Ellipse_82" data-name="Ellipse 82" cx="12.489" cy="14.562" rx="12.489" ry="14.562" transform="translate(29.056 23.604)" fill="#fff"/>
      <ellipse id="Ellipse_83" data-name="Ellipse 83" cx="4.741" cy="5.534" rx="4.741" ry="5.534" transform="translate(36.805 26.916)" fill="#26242e" stroke="#263238" stroke-linecap="round" stroke-linejoin="round" stroke-width="1"/>
      <path id="Path_938" data-name="Path 938" d="M290.942,167.25a8.4,8.4,0,0,0-8.622,8.128,7.548,7.548,0,0,0,.115,1.246,11.2,11.2,0,0,0,17.014,0,8.072,8.072,0,0,0-8.507-9.374Z" transform="translate(-249.396 -127.797)" fill="#26242e" stroke="#263238" stroke-linecap="round" stroke-linejoin="round" stroke-width="1"/>
      <path id="Path_939" data-name="Path 939" d="M301.611,239.231h-30.37a3.034,3.034,0,0,1-2.912-3.149V217.334c0-10.8,8.128-19.594,18.1-19.594s18.091,8.8,18.091,19.594v18.734a3.034,3.034,0,0,1-2.906,3.163Zm-27.465-6.3H298.7V217.355c0-7.328-5.506-13.3-12.273-13.3s-12.279,5.967-12.279,13.3Z" transform="translate(-244.881 -137.636)" fill="#26242e"/>
      <rect id="Rectangle_4998" data-name="Rectangle 4998" width="42.169" height="39.893" transform="translate(20.461 88.801)" fill="#fff"/>
      <path id="Path_940" data-name="Path 940" d="M298.463,272.357l-3.129-7.525a5.547,5.547,0,0,0,2.2-4.484,5.024,5.024,0,1,0-10.017,0,5.54,5.54,0,0,0,2.194,4.484l-3.122,7.525Z" transform="translate(-250.774 -156.091)" fill="#26242e" stroke="#263238" stroke-linecap="round" stroke-linejoin="round" stroke-width="1"/>
      <path id="Path_941" data-name="Path 941" d="M276.015,319.977a.386.386,0,0,0,.224.074.352.352,0,0,0,.291-.156l48.346-65.759V252.89l-48.915,66.572a.366.366,0,0,0,.054.515Z" transform="translate(-247.318 -155.433)" fill="#fff"/>
      <path id="Path_942" data-name="Path 942" d="M333.826,156.2a.366.366,0,0,0,.081.515.373.373,0,0,0,.515-.081l9.13-12.415V143Z" transform="translate(-265.994 -119.972)" fill="#fff"/>
      <path id="Path_943" data-name="Path 943" d="M241.88,250.512l59.684-81.161a.368.368,0,1,0-.6-.433l-59.061,80.348Z" transform="translate(-236.346 -128.286)" fill="#fff"/>
      <path id="Path_944" data-name="Path 944" d="M267.623,361.229a.386.386,0,0,0,.3-.149l3.387-4.579a.366.366,0,0,0-.081-.515.373.373,0,0,0-.515.081l-3.386,4.572a.366.366,0,0,0,.074.515A.345.345,0,0,0,267.623,361.229Z" transform="translate(-244.534 -188.68)" fill="#fff"/>
      <path id="Path_945" data-name="Path 945" d="M329.276,274.17l-39.69,53.988a.366.366,0,0,0,.3.582.359.359,0,0,0,.3-.149l39.094-53.182Z" transform="translate(-251.718 -162.3)" fill="#fff"/>
    </g>
    <g id="freepik--Character--inject-2" transform="translate(58.692 128.384)">
      <path id="Path_946" data-name="Path 946" d="M117.526,157.335a10.762,10.762,0,0,0,.948-4.741c0-3.028-3.664-4.782-7.972-5.263s-6.218,1.273-5.581,2.391a10.43,10.43,0,0,0,2.391,2.391s-4.308-2.391-7.179-.474,1.28,1.118.481,3.028-5.263,1.118-6.38,6.218,2.073,10.207-.8,12.442-11.514-.8-14.034,4.782,1.057,8.06-5,11.568-10.471,6.936-8.717,15.544,7.5,11.622,18.822,8.581,10.525-9.889,14.223-16.933,9.414-5.581,11.169-9.57-.481-8.771-.318-12.442,3.827-4.463,5.263-8.8S117.526,157.335,117.526,157.335Z" transform="translate(-65.297 -147.25)" fill="#26242e" stroke="#263238" stroke-linecap="round" stroke-linejoin="round" stroke-width="1"/>
      <path id="Path_947" data-name="Path 947" d="M67.61,232.6a4.24,4.24,0,0,0-.44,1.93" transform="translate(-65.901 -174.792)" fill="none" stroke="#fff" stroke-linecap="round" stroke-linejoin="round" stroke-width="0.5"/>
      <path id="Path_948" data-name="Path 948" d="M112.8,156.748s-1.991-2.3,1.842-1.233c4.829,1.355-.84,6.942-3.021,8.067-4.375,2.242-10.16,1.524-13.546,5.6-3.075,3.685,1.077,7.525-.765,10.444s-9.218,1.226-11.67,4.741,4.45,11.06-2.614,15.205c-5.107,3-10.7,4.152-13.4,6.529" transform="translate(-66.692 -149.825)" fill="none" stroke="#fff" stroke-linecap="round" stroke-linejoin="round" stroke-width="0.5"/>
      <path id="Path_949" data-name="Path 949" d="M103.912,177.59a5.534,5.534,0,0,0-.366,3.109c.61,2.608,4.145,7.525.921,10.288s-8.757,2.608-9.672,5.845.921,12.13-2.147,16.255-9.062,3.84-12.286,6.6-2.763,4.3-2.763,4.3" transform="translate(-69.259 -157.04)" fill="none" stroke="#fff" stroke-linecap="round" stroke-linejoin="round" stroke-width="0.5"/>
      <path id="Path_950" data-name="Path 950" d="M118.492,173.11a13.5,13.5,0,0,0-.772,1.226" transform="translate(-82.214 -155.595)" fill="none" stroke="#fff" stroke-linecap="round" stroke-linejoin="round" stroke-width="0.5"/>
      <path id="Path_951" data-name="Path 951" d="M142.671,232.192l.779,6.1s4.064,4.064,7.051,6.577,10.64,7.83,10.64,7.83l-3.881,1.1s-12.686-7.518-15.192-8.128-4.382-4.226-5.161-5.324S140.633,231.095,142.671,232.192Z" transform="translate(-88.377 -174.628)" fill="#fff" stroke="#263238" stroke-linecap="round" stroke-linejoin="round" stroke-width="1"/>
      <path id="Path_952" data-name="Path 952" d="M154.134,378.309s3.834,3.237,5.418,4.321,3.434,1.571,3.143,2.161-1.084,1.178-4.816.677a13.393,13.393,0,0,1-5.5-1.964c-.691-.2-2.357.3-3.63-.488s.745-5.466.745-5.466a3.644,3.644,0,0,0,4.639.759Z" transform="translate(-92.091 -221.567)" fill="#fff" stroke="#263238" stroke-linecap="round" stroke-linejoin="round" stroke-width="1"/>
      <path id="Path_953" data-name="Path 953" d="M162.62,386.82a.5.5,0,0,0,0-.095,17.454,17.454,0,0,1-6.407-.6c-2.411-.569-3.122-1.849-5.418-1.849a7.87,7.87,0,0,1-2.648-.433,1.4,1.4,0,0,0,.481,1.212c1.273.786,2.946.291,3.63.488a13.129,13.129,0,0,0,5.5,1.964C161.489,387.992,162.322,387.409,162.62,386.82Z" transform="translate(-92.03 -223.597)" fill="#fff" stroke="#263238" stroke-linecap="round" stroke-linejoin="round" stroke-width="1"/>
      <path id="Path_954" data-name="Path 954" d="M112.842,185.4s.738,4.971-.21,6.976-3.915,2.222-6.448,2.648-8.351,2.641-7.721,8.351,7.931,18.077,7.931,21.565-2.222,5.283-4.653,12.049-2.113,19.351-1.355,27.492a85.95,85.95,0,0,0,3.17,15.856s-6.1,9.834-8.8,14.061S82.56,317.027,82.56,317.027s0,.63,1.477,1.057a9.267,9.267,0,0,0,3.177.21s18.179-21.884,21.565-25.582,6.556-10.159,6.976-13.113-.1-21.037-.1-21.037,3.8,9.089,6.773,13.742a97.684,97.684,0,0,1,4.958,8.8,53.222,53.222,0,0,0,0,11.514c.738,5.283.115,22.256.853,23.631s3.6.8,4.24.169.935-4.741.935-4.741,1.267-12.869,2.032-18.924,2.032-11.209,1.592-12.584-3.068-16.072-5.08-23.028-8.128-19.98-9.482-23.36-2.12-6.455-1.9-7.511,4.335-7.4,5.418-9.089a8.358,8.358,0,0,0,.21-7.5c-1.267-2.75,0-6.455-.21-8.669s-3.488-3.177-5.181-4.016a4.721,4.721,0,0,1-2.33-4.335,12.192,12.192,0,0,1,.955-3.874S114.217,185.4,112.842,185.4Z" transform="translate(-70.868 -159.561)" fill="#fff" stroke="#263238" stroke-linecap="round" stroke-linejoin="round" stroke-width="1"/>
      <path id="Path_955" data-name="Path 955" d="M145.528,216.721a34.885,34.885,0,0,1-1.388-4.341" transform="translate(-90.739 -168.267)" fill="none" stroke="#263238" stroke-linecap="round" stroke-linejoin="round" stroke-width="1"/>
      <path id="Path_956" data-name="Path 956" d="M125.92,235.46s1.91.42,5.737-1.49" transform="translate(-84.86 -175.234)" fill="none" stroke="#263238" stroke-linecap="round" stroke-linejoin="round" stroke-width="1"/>
      <path id="Path_957" data-name="Path 957" d="M131.976,279.755c-1.917-6.665-7.6-18.836-9.3-22.852-8.128,3.048-15.727.447-19.3-1.233-.515,1.124-1.07,2.425-1.639,4-2.432,6.773-2.113,19.351-1.355,27.492a85.951,85.951,0,0,0,3.17,15.856s-6.1,9.834-8.8,14.061S82.56,339.7,82.56,339.7s0,.63,1.477,1.057a9.267,9.267,0,0,0,3.177.21s18.179-21.884,21.565-25.582,6.556-10.16,6.976-13.113-.1-21.037-.1-21.037,3.8,9.089,6.773,13.742a97.692,97.692,0,0,1,4.958,8.8,53.222,53.222,0,0,0,0,11.514c.738,5.283.115,22.256.853,23.631s3.6.8,4.24.169.935-4.741.935-4.741,1.267-12.869,2.032-18.924,2.032-11.209,1.592-12.584S133.987,286.731,131.976,279.755Z" transform="translate(-70.868 -182.237)" fill="#26242e" stroke="#263238" stroke-linecap="round" stroke-linejoin="round" stroke-width="1"/>
      <path id="Path_958" data-name="Path 958" d="M210.658,275.492V274.11h1.158V263.26H198.067v10.85h1.158v1.382H198.06v2.52h4.463v-.847h4.836v.847h4.463v-2.52Z" transform="translate(-108.139 -184.686)" fill="#c192da" stroke="#263238" stroke-linecap="round" stroke-linejoin="round" stroke-width="1"/>
      <path id="Path_959" data-name="Path 959" d="M107.56,258.467h79.759a1.206,1.206,0,0,1,1.206,1.206V262.1a1.206,1.206,0,0,1-1.206,1.206H107.56v-4.836Z" transform="translate(-78.935 -183.137)" fill="#c192da" stroke="#263238" stroke-linecap="round" stroke-linejoin="round" stroke-width="1"/>
      <rect id="Rectangle_4999" data-name="Rectangle 4999" width="6.197" height="6.292" rx="0.99" transform="translate(80.344 74.605)" fill="#892bb9" stroke="#263238" stroke-linecap="round" stroke-linejoin="round" stroke-width="1"/>
      <circle id="Ellipse_84" data-name="Ellipse 84" cx="12.591" cy="12.591" r="12.591" transform="translate(4.235 88.143) rotate(-80.7)" fill="#c192da" stroke="#263238" stroke-linecap="round" stroke-linejoin="round" stroke-width="1"/>
      <path id="Path_960" data-name="Path 960" d="M93.064,258.034a4.4,4.4,0,0,0,2.5-3.847c0-2.472-2.276-4.477-5.087-4.477s-5.087,2.032-5.087,4.477a4.389,4.389,0,0,0,2.5,3.847,4.409,4.409,0,0,0-2.5,3.854c0,2.472,2.276,4.477,5.087,4.477s5.087-2.032,5.087-4.477a4.423,4.423,0,0,0-2.5-3.854Z" transform="translate(-71.781 -180.313)" fill="#fff" stroke="#263238" stroke-linecap="round" stroke-linejoin="round" stroke-width="1"/>
      <path id="Path_961" data-name="Path 961" d="M169.06,264.091s3.942,1.666,5.161,1.666,2.628-1.226,3.326-2.709.677-2.188.264-1.835l-.874.677s.677-1.483-.088-1.307a2.14,2.14,0,0,0-1.226,1.05s-.088-1.314-.786-.677a8.018,8.018,0,0,0-1.226,1.4s-.088-1.659-.528-1.226-2.093,2.8-2.093,2.8Z" transform="translate(-98.781 -183.817)" fill="#fff" stroke="#263238" stroke-linecap="round" stroke-linejoin="round" stroke-width="1"/>
      <path id="Path_962" data-name="Path 962" d="M175.031,263.19s-.264,2.1-1.571,2.452" transform="translate(-100.201 -184.663)" fill="#fff" stroke="#263238" stroke-linecap="round" stroke-linejoin="round" stroke-width="1"/>
      <path id="Path_963" data-name="Path 963" d="M177.917,262.16s-.677,3.319-1.747,3.847" transform="translate(-101.075 -184.331)" fill="#fff" stroke="#263238" stroke-linecap="round" stroke-linejoin="round" stroke-width="1"/>
      <path id="Path_964" data-name="Path 964" d="M180.022,262.54a18.876,18.876,0,0,1-1.4,3.5" transform="translate(-101.866 -184.454)" fill="#fff" stroke="#263238" stroke-linecap="round" stroke-linejoin="round" stroke-width="1"/>
      <path id="Path_965" data-name="Path 965" d="M134.213,196.792a4.809,4.809,0,0,1-2.113-4.2,12.192,12.192,0,0,1,.989-3.806s-5.181-3.387-6.556-3.387c0,0,.738,4.971-.21,6.976a3.183,3.183,0,0,1-1.443,1.436,40.381,40.381,0,0,0,5.046,9.482C131.829,205.685,132.757,200.646,134.213,196.792Z" transform="translate(-84.524 -159.561)" fill="#fff" stroke="#263238" stroke-linecap="round" stroke-linejoin="round" stroke-width="1"/>
      <path id="Path_966" data-name="Path 966" d="M107.157,200.62a8.459,8.459,0,0,0-6.1,4.463c-2.086,4.023-11.2,22.283-10.424,23.374,4.43,6.231,20.543,10.715,22.182,12.354a37.252,37.252,0,0,0,5.371,4.64c1.639,1.043,4.91.6,5.506.3s1.043-1.639,0-1.639a1.741,1.741,0,0,1-1.72-1.355c-.149-.6,1.639.6,2.533.149s-2-2.079-2.892-2.824-1.639-1.781-2.831-1.781h-3.434s-5.486-3.976-8.8-6.936a50.37,50.37,0,0,0-8.405-6.136L108.2,208.68" transform="translate(-73.459 -164.472)" fill="#fff" stroke="#263238" stroke-linecap="round" stroke-linejoin="round" stroke-width="1"/>
      <path id="Path_967" data-name="Path 967" d="M121.6,247.731c-.894-.745-1.639-1.781-2.831-1.781h-3.434s-5.486-3.976-8.8-6.936a50.371,50.371,0,0,0-8.405-6.136l4.023-6.624a13.458,13.458,0,0,0-6.814-1.944c-2.709,5.649-5.141,11.23-4.741,11.819,4.43,6.231,20.543,10.715,22.182,12.354a37.253,37.253,0,0,0,5.371,4.64c1.639,1.043,4.91.6,5.506.3s1.043-1.639,0-1.639a1.741,1.741,0,0,1-1.72-1.355c-.149-.6,1.639.6,2.533.149S122.49,248.483,121.6,247.731Z" transform="translate(-73.445 -172.117)" fill="#fff" stroke="#263238" stroke-linecap="round" stroke-linejoin="round" stroke-width="1"/>
      <path id="Path_968" data-name="Path 968" d="M136.84,170.6a5.093,5.093,0,0,1-.318-3.387c.21-1.483-1.057-5.08-1.057-5.08h0c-1.294,2.235-5.032,3.563-6.685,4.064-1.822.555.84,1.815.555,3.5s-3.922,2.662-3.922,2.662-1.063-2.188-2.54-2.188-2.526,3.387-1.686,5.181a2.4,2.4,0,0,0,2.648,1.388s-.1,3.177,1.9,4.125A37.252,37.252,0,0,0,132.4,183.3c1.267.21,2.533-.42,3.061-2.323a43.481,43.481,0,0,0,.847-5.818,13.607,13.607,0,0,0,2.432-2.032C139.251,172.391,137.368,171.653,136.84,170.6Z" transform="translate(-83.236 -152.051)" fill="#fff" stroke="#263238" stroke-linecap="round" stroke-linejoin="round" stroke-width="1"/>
      <path id="Path_969" data-name="Path 969" d="M141,174.2c0,.582-.19,1.05-.42,1.05s-.42-.467-.42-1.05.19-1.05.42-1.05S141,173.617,141,174.2Z" transform="translate(-89.455 -155.608)" fill="#263238"/>
      <path id="Path_970" data-name="Path 970" d="M138.71,171.632s1.124-1.267,1.964-.982" transform="translate(-88.987 -154.787)" fill="none" stroke="#263238" stroke-linecap="round" stroke-linejoin="round" stroke-width="1"/>
      <path id="Path_971" data-name="Path 971" d="M140.206,184.617a3.048,3.048,0,0,1-2.946-.677" transform="translate(-88.519 -159.089)" fill="none" stroke="#263238" stroke-linecap="round" stroke-linejoin="round" stroke-width="1"/>
      <path id="Path_972" data-name="Path 972" d="M81.47,379.74s-2.526,5.066-2.432,5.757,5.107,4.321,7.45,5.595,6.583,1.477,6.285-.291-4.321-2.946-5.3-5.6a42.928,42.928,0,0,1-1.355-4.193,8.683,8.683,0,0,1-4.646-1.267Z" transform="translate(-69.73 -222.274)" fill="#fff" stroke="#263238" stroke-linecap="round" stroke-linejoin="round" stroke-width="1"/>
      <path id="Path_973" data-name="Path 973" d="M92.786,393.028a9.894,9.894,0,0,1-5.3-.752,32.125,32.125,0,0,1-8.128-5.716,3.63,3.63,0,0,0-.325,1.158c.1.677,5.107,4.321,7.45,5.594S93.03,394.762,92.786,393.028Z" transform="translate(-69.729 -224.475)" fill="#fff" stroke="#263238" stroke-linecap="round" stroke-linejoin="round" stroke-width="1"/>
    </g>
  </g>
</svg>
