<svg xmlns="http://www.w3.org/2000/svg" xmlns:xlink="http://www.w3.org/1999/xlink" width="216.965" height="210.553" viewBox="0 0 216.965 210.553">
  <defs>
    <linearGradient id="linear-gradient" x1="0.5" x2="0.5" y2="1" gradientUnits="objectBoundingBox">
      <stop offset="0" stop-color="#91c9ee"/>
      <stop offset="1" stop-color="#c192da"/>
    </linearGradient>
    <clipPath id="clip-path">
      <path id="Path_874" data-name="Path 874" d="M97.226,204.056l-17.6-5.747-1.566-4.138-3.576-.112-6.49-1.23.78,1.342,8.168,5.929,2.015,1.005,18.411,9.617Z" transform="translate(-67.99 -192.83)" fill="#e0bfea" stroke="#263238" stroke-miterlimit="10" stroke-width="1.004"/>
    </clipPath>
    <clipPath id="clip-path-2">
      <path id="Path_878" data-name="Path 878" d="M82.44,194.465l-1.679-1.005-3.352,1.23.556.668Z" transform="translate(-77.41 -193.46)" fill="#fff" stroke="#263238" stroke-linejoin="round" stroke-width="1.004"/>
    </clipPath>
    <clipPath id="clip-path-3">
      <path id="Path_882" data-name="Path 882" d="M124.228,142.983a9.344,9.344,0,0,0,.406,3.951,76.471,76.471,0,0,0,4.448,6.779l-7.035,5.64s-2.919-5.88-3.475-6.832a9.691,9.691,0,0,1,.588-7.981C120.973,141.6,123.582,140.813,124.228,142.983Z" transform="translate(-117.978 -141.747)" fill="#e0bfea" stroke="#263238" stroke-miterlimit="10" stroke-width="1.004"/>
    </clipPath>
    <clipPath id="clip-path-4">
      <path id="Path_886" data-name="Path 886" d="M116.056,128.936c-.433-2.673-3.5-8.11-8.356-7.9a11.817,11.817,0,0,0-6,1.55,17.641,17.641,0,0,0-3.1,2.32c-2.374,2.849-3.207,3.63-2.748,5.811a6.543,6.543,0,0,0,.4,2.555A20.371,20.371,0,0,0,98.11,137.4c-.192.9-.695,3.288-.722,3.833s1.6.166,2.427-.043c1.529,3.421,4.33,5.795,5.2,6.068,1.518.476,3.918-2.021,5.191-3.956s.31-4.111.315-4.977,2.86-2.769,3.918-3.373S116.484,131.6,116.056,128.936Z" transform="translate(-95.733 -121.029)" fill="#e0bfea" stroke="#263238" stroke-miterlimit="10" stroke-width="1"/>
    </clipPath>
    <clipPath id="clip-path-5">
      <path id="Path_913" data-name="Path 913" d="M107.78,171.54s3.79,2.582,3.876,8.682a60.51,60.51,0,0,1-.855,9.548c-.615,4.378-4.432,18.636-7.4,20.368s-7.586-1.54-7.586-1.54L73.5,193.784,68.1,189.427l-2.673-5.046.839-1.6,6.581,5.046-3.544-3.277.695-.882,1.283.893,3.742,1.4.818,5.346,1.155.791,21.346,7.8s-.267-11.488-.069-13.685.47-7.719,2.823-11.723" transform="translate(-65.43 -171.54)" fill="#e0bfea" stroke="#263238" stroke-miterlimit="10" stroke-width="1.004"/>
    </clipPath>
  </defs>
  <g id="Group_1255" data-name="Group 1255" transform="translate(-79 -193)">
    <g id="freepik--background-simple--inject-1--inject-6" transform="translate(79 193)">
      <path id="Path_852" data-name="Path 852" d="M239.532,75.455c-13.3-30.327-45.226-41.746-70.415-21.383-9.836,7.944-15.973,20.587-28.017,25.66-11.3,4.758-25.617,3.357-37.838,5.934-26.023,5.453-61.06,26.141-58.387,58.018,1.171,13.963,10.59,29.472,15.246,42.537,5.346,15.032,8.553,33.839,22.7,42.825,24.259,15.428,53.522,2.817,75.376-9.622,11.761-6.688,18.235-10.8,30.9-8.505,11.723,2.138,22.281,9.622,33.737.743,8.6-6.666,9.312-20.175,16.535-28.108,8.136-8.938,16.385-9.585,20.614-23.019,5.127-16.3-2.427-26.483-7.532-41.045S245.8,89.723,239.532,75.455Z" transform="translate(-44.73 -43.816)" fill="#ede2f1"/>
      <g id="Group_952" data-name="Group 952" opacity="0.7">
        <path id="Path_853" data-name="Path 853" d="M239.532,75.455c-13.3-30.327-45.226-41.746-70.415-21.383-9.836,7.944-15.973,20.587-28.017,25.66-11.3,4.758-25.617,3.357-37.838,5.934-26.023,5.453-61.06,26.141-58.387,58.018,1.171,13.963,10.59,29.472,15.246,42.537,5.346,15.032,8.553,33.839,22.7,42.825,24.259,15.428,53.522,2.817,75.376-9.622,11.761-6.688,18.235-10.8,30.9-8.505,11.723,2.138,22.281,9.622,33.737.743,8.6-6.666,9.312-20.175,16.535-28.108,8.136-8.938,16.385-9.585,20.614-23.019,5.127-16.3-2.427-26.483-7.532-41.045S245.8,89.723,239.532,75.455Z" transform="translate(-44.73 -43.816)" fill="#ede2f1"/>
      </g>
    </g>
    <g id="freepik--Shadow--inject-1--inject-6" transform="translate(89.959 393.257)">
      <ellipse id="Ellipse_77" data-name="Ellipse 77" cx="82.636" cy="5.148" rx="82.636" ry="5.148" fill="rgba(187,134,252,0.23)"/>
      <ellipse id="Ellipse_78" data-name="Ellipse 78" cx="82.636" cy="5.148" rx="82.636" ry="5.148" fill="#ebd5f2"/>
    </g>
    <g id="freepik--Device--inject-1--inject-6" transform="translate(141.215 202.646)">
      <rect id="Rectangle_4988" data-name="Rectangle 4988" width="103.864" height="196.192" rx="19.43" fill="#26242e"/>
      <rect id="Rectangle_4989" data-name="Rectangle 4989" width="94.632" height="153.104" transform="translate(4.613 21.544)" fill="#fff" stroke="#263238" stroke-miterlimit="10" stroke-width="1.337"/>
      <circle id="Ellipse_79" data-name="Ellipse 79" cx="20.512" cy="20.512" r="20.512" transform="translate(22.924 69.036) rotate(-45)" fill="url(#linear-gradient)"/>
      <path id="Path_854" data-name="Path 854" d="M260.939,368.944H207.085a.92.92,0,0,1-.925-.919h0a.92.92,0,0,1,.925-.925h53.854a.919.919,0,0,1,.919.925h0A.919.919,0,0,1,260.939,368.944Z" transform="translate(-182.077 -203.924)" fill="#9a5dba"/>
      <rect id="Rectangle_4990" data-name="Rectangle 4990" width="61.653" height="11.05" rx="4.01" transform="translate(21.105 101.079)" fill="#c192da"/>
      <path id="Path_920" data-name="Path 920" d="M4.01,0H57.643a4.01,4.01,0,0,1,4.01,4.01V7.04a4.01,4.01,0,0,1-4.01,4.01H4.01A4.01,4.01,0,0,1,0,7.04V4.01A4.01,4.01,0,0,1,4.01,0Z" transform="translate(21.105 121.746)" fill="#c192da"/>
      <path id="Path_855" data-name="Path 855" d="M257.556,187.546l-6.035-3.475V181.2a9.44,9.44,0,0,0,1.855-3.619,1.946,1.946,0,0,0,.647.112c.748,0,1.224-2.32,1.3-3.977a2.464,2.464,0,0,0-.315-2.924,4.975,4.975,0,0,0,.818-2.464c.326-1.973-1.149-1.149-2.3-2.956s-1.973-3.774-5.747-3.774a5.185,5.185,0,0,0-4.929,3.122,12.487,12.487,0,0,0-2.791.326c-1.155.326-1.481,4.106-.5,5.586a5.629,5.629,0,0,1,.684,2.635c-.262-.321-.535-.406-.684.321-.326,1.641.989,3.94.989,3.94l.679-.192a9.623,9.623,0,0,0,1.93,3.865v2.871l-6.035,3.475a4.64,4.64,0,0,0-2.32,4.015v1.989a20.5,20.5,0,0,0,25.067,0v-1.989A4.629,4.629,0,0,0,257.556,187.546Z" transform="translate(-195.411 -108.278)" fill="#26242e"/>
      <path id="Path_856" data-name="Path 856" d="M213.556,300.28a.535.535,0,0,1-.369-.155.5.5,0,0,1-.166-.374.534.534,0,0,1,.08-.273l.962-1.54-1.876.059a.5.5,0,0,1-.385-.144.535.535,0,0,1,0-.711.486.486,0,0,1,.385-.15l1.85.069-.952-1.534a.535.535,0,0,1-.08-.278.5.5,0,0,1,.166-.374.534.534,0,0,1,.369-.155.481.481,0,0,1,.433.278l.914,1.652.9-1.641a.535.535,0,0,1,.465-.3.486.486,0,0,1,.358.16.545.545,0,0,1,.08.642l-.968,1.55,1.876-.069a.486.486,0,0,1,.385.15.5.5,0,0,1,.139.353.535.535,0,0,1-.139.358.5.5,0,0,1-.385.144l-1.887-.059.941,1.524a.536.536,0,0,1-.454.818.47.47,0,0,1-.428-.289l-.893-1.6-.887,1.6A.5.5,0,0,1,213.556,300.28Z" transform="translate(-184.64 -170.232)" fill="#892bb9"/>
      <path id="Path_857" data-name="Path 857" d="M229.769,300.28a.535.535,0,0,1-.369-.155.5.5,0,0,1-.166-.374.535.535,0,0,1,.08-.273l.962-1.54-1.871.059a.535.535,0,0,1-.39-.144.508.508,0,0,1,.39-.861l1.844.069-.952-1.534a.534.534,0,0,1-.08-.278.5.5,0,0,1,.166-.374.535.535,0,0,1,.369-.155.481.481,0,0,1,.433.278l.914,1.652.9-1.641a.535.535,0,0,1,.465-.3.476.476,0,0,1,.358.16.523.523,0,0,1,.08.642l-.968,1.55,1.882-.059a.476.476,0,0,1,.38.15.5.5,0,0,1,.139.353.535.535,0,0,1-.139.358.492.492,0,0,1-.38.144l-1.892-.059.941,1.524a.536.536,0,0,1-.454.818.47.47,0,0,1-.428-.289l-.893-1.6-.887,1.6A.5.5,0,0,1,229.769,300.28Z" transform="translate(-192.182 -170.232)" fill="#892bb9"/>
      <path id="Path_858" data-name="Path 858" d="M246,300.28a.534.534,0,0,1-.374-.155.5.5,0,0,1-.166-.374.535.535,0,0,1,.08-.273l.962-1.54L244.63,298a.5.5,0,1,1,0-1.005l1.844.069-.952-1.534a.536.536,0,0,1,.46-.807.481.481,0,0,1,.428.278l.914,1.652.9-1.641a.534.534,0,0,1,.465-.3.476.476,0,0,1,.358.16.523.523,0,0,1,.08.641l-.968,1.55,1.882-.069a.487.487,0,0,1,.535.5.535.535,0,0,1-.134.358.5.5,0,0,1-.385.144l-1.887-.059.936,1.524a.519.519,0,0,1-.086.658.5.5,0,0,1-.364.16.465.465,0,0,1-.422-.289l-.9-1.6-.887,1.6A.5.5,0,0,1,246,300.28Z" transform="translate(-199.736 -170.232)" fill="#892bb9"/>
      <path id="Path_859" data-name="Path 859" d="M262.221,300.28a.539.539,0,0,1-.535-.529.5.5,0,0,1,.075-.273l.962-1.54-1.871.059a.5.5,0,1,1,0-1.005l1.85.069-.946-1.534a.536.536,0,0,1,.46-.807.481.481,0,0,1,.433.278l.909,1.652.9-1.641a.535.535,0,0,1,.465-.3.476.476,0,0,1,.358.16.523.523,0,0,1,.08.642l-.968,1.55,1.882-.069a.486.486,0,0,1,.535.5.535.535,0,0,1-.134.358.5.5,0,0,1-.385.144l-1.887-.059.935,1.524a.534.534,0,0,1,.08.283.5.5,0,0,1-.166.374.5.5,0,0,1-.364.16.465.465,0,0,1-.422-.289l-.9-1.6-.887,1.6a.5.5,0,0,1-.465.289Z" transform="translate(-207.287 -170.232)" fill="#892bb9"/>
      <path id="Path_860" data-name="Path 860" d="M278.441,300.28a.53.53,0,0,1-.454-.8l.957-1.54-1.871.059a.5.5,0,1,1,0-1l1.85.069-.952-1.534a.532.532,0,0,1,.454-.807.481.481,0,0,1,.433.278l.909,1.652.9-1.641a.534.534,0,0,1,.465-.3.486.486,0,0,1,.363.16.531.531,0,0,1,.075.641l-.968,1.55,1.882-.069a.486.486,0,0,1,.535.5.535.535,0,0,1-.134.358.5.5,0,0,1-.385.144l-1.887-.059.936,1.524a.535.535,0,0,1,.08.283.5.5,0,0,1-.166.374.5.5,0,0,1-.364.16.465.465,0,0,1-.422-.289l-.9-1.6-.887,1.6a.5.5,0,0,1-.454.289Z" transform="translate(-214.836 -170.232)" fill="#892bb9"/>
      <path id="Path_861" data-name="Path 861" d="M294.653,300.28a.535.535,0,0,1-.369-.155.5.5,0,0,1-.166-.374.535.535,0,0,1,.08-.273l.957-1.54-1.871.059a.5.5,0,0,1-.39-.855.486.486,0,0,1,.385-.15l1.85.069-.952-1.534a.532.532,0,0,1,.454-.807.481.481,0,0,1,.433.278l.909,1.652.909-1.641a.534.534,0,0,1,.46-.3.487.487,0,0,1,.363.16.545.545,0,0,1,.08.641l-.968,1.55,1.876-.069a.486.486,0,0,1,.385.15.5.5,0,0,1,.139.353.534.534,0,0,1-.139.358.5.5,0,0,1-.385.144l-1.887-.059.936,1.524a.541.541,0,0,1-.449.818.465.465,0,0,1-.422-.289l-.9-1.6-.887,1.6A.5.5,0,0,1,294.653,300.28Z" transform="translate(-222.378 -170.232)" fill="#892bb9"/>
      <rect id="Rectangle_4992" data-name="Rectangle 4992" width="94.632" height="5.929" transform="translate(4.613 21.747)" fill="#9a5dba"/>
      <path id="Path_862" data-name="Path 862" d="M258.362,79.671H237.781a1.4,1.4,0,0,1-1.4-1.4h0a1.4,1.4,0,0,1,1.4-1.4h20.581a1.4,1.4,0,0,1,1.4,1.4h0A1.4,1.4,0,0,1,258.362,79.671Z" transform="translate(-196.142 -68.846)" fill="#9a5dba" stroke="#263238" stroke-linecap="round" stroke-linejoin="round" stroke-width="1.337"/>
      <path id="Path_863" data-name="Path 863" d="M258.976,399.848a5.613,5.613,0,1,0-5.608,5.608A5.613,5.613,0,0,0,258.976,399.848Z" transform="translate(-201.434 -216.551)" fill="#9a5dba"/>
      <rect id="Rectangle_4993" data-name="Rectangle 4993" width="5.688" height="5.688" transform="translate(49.091 180.454)" fill="#e0bfea" stroke="#263238" stroke-linecap="round" stroke-linejoin="round" stroke-width="1.337"/>
    </g>
    <g id="freepik--Plant--inject-1--inject-6" transform="translate(236.577 296.377)">
      <path id="Path_864" data-name="Path 864" d="M363.822,262.216s-7.452-18.935-.818-21.186c6.907-2.347,6.6,10.157,6.335,16.251-.561,13.022-2,15.444-3.074,12.263Zm-2.24,14.771c2.047,2.673,2.625-.1-1.069-12.6-1.732-5.88-5.5-17.775-11.269-13.311-5.544,4.277,7.65,19.78,7.65,19.78Zm-3.956,10.852c1.951,1.732,1.989-.454-2.646-9.483-2.176-4.229-6.779-12.787-10.547-8.553-3.619,4.084,8.714,14.011,8.714,14.011Zm-4.277,12.9c1.951,1.737,1.989-.454-2.646-9.478-2.176-4.229-6.779-12.793-10.547-8.553-3.6,4.095,8.7,14.022,8.7,14.022ZM365.7,274.474c-3.122,1.219-.641,2.545,12.4,2.507,6.116,0,18.6-.278,15.941-7.073-2.55-6.527-21.121,1.785-21.121,1.785Zm-3.555,8.682c-3.3.572-1.133,2.368,11.654,4.924,5.993,1.2,18.283,3.421,17.026-3.742-1.2-6.907-21.057-2.448-21.057-2.448Zm-3.977,10.6c-2.812.406-1.016,1.973,9.735,4.432,5.041,1.155,15.385,3.32,14.487-2.791-.855-5.88-17.748-2.555-17.748-2.555Zm-3.02,9.82c-2.753.7-.8,2.069,10.157,3.373,5.132.609,15.647,1.668,14.113-4.314-1.481-5.741-17.925-.658-17.925-.658Zm16.112-39.757c-1.6,3.592,1.727,3.047,13.049-6.832,5.3-4.635,15.941-14.332,7.516-19.159-8.088-4.64-16.786,17.748-16.786,17.748Zm-15.7,52.549c-1.695.989-.032,1.374,7.741-.176,3.646-.722,11.06-2.325,8.553-5.49-2.427-3.047-12.37,3.368-12.37,3.368Z" transform="translate(-339.496 -237.196)" fill="#c192da"/>
      <path id="Path_865" data-name="Path 865" d="M363.822,262.216s-7.452-18.935-.818-21.186c6.907-2.347,6.6,10.157,6.335,16.251-.561,13.022-2,15.444-3.074,12.263Zm-2.24,14.771c2.047,2.673,2.625-.1-1.069-12.6-1.732-5.88-5.5-17.775-11.269-13.311-5.544,4.277,7.65,19.78,7.65,19.78Zm-3.956,10.852c1.951,1.732,1.989-.454-2.646-9.483-2.176-4.229-6.779-12.787-10.547-8.553-3.619,4.084,8.714,14.011,8.714,14.011Zm-4.277,12.9c1.951,1.737,1.989-.454-2.646-9.478-2.176-4.229-6.779-12.793-10.547-8.553-3.6,4.095,8.7,14.022,8.7,14.022ZM365.7,274.474c-3.122,1.219-.641,2.545,12.4,2.507,6.116,0,18.6-.278,15.941-7.073-2.55-6.527-21.121,1.785-21.121,1.785Zm-3.555,8.682c-3.3.572-1.133,2.368,11.654,4.924,5.993,1.2,18.283,3.421,17.026-3.742-1.2-6.907-21.057-2.448-21.057-2.448Zm-3.977,10.6c-2.812.406-1.016,1.973,9.735,4.432,5.041,1.155,15.385,3.32,14.487-2.791-.855-5.88-17.748-2.555-17.748-2.555Zm-3.02,9.82c-2.753.7-.8,2.069,10.157,3.373,5.132.609,15.647,1.668,14.113-4.314-1.481-5.741-17.925-.658-17.925-.658Zm16.112-39.757c-1.6,3.592,1.727,3.047,13.049-6.832,5.3-4.635,15.941-14.332,7.516-19.159-8.088-4.64-16.786,17.748-16.786,17.748Zm-15.7,52.549c-1.695.989-.032,1.374,7.741-.176,3.646-.722,11.06-2.325,8.553-5.49-2.427-3.047-12.37,3.368-12.37,3.368Z" transform="translate(-339.496 -237.196)" fill="#c192da" opacity="0.3"/>
      <path id="Path_866" data-name="Path 866" d="M374.273,278.172l-1.3-21.613M370.163,285.3l-8.211-18.587m29.4,13.183-19.678,2.823m-5.768,12.6-10.654-13.669m12.525,9.478,14.68.738M364.3,301.613l11.226,1.112m-13.937,5.549-5.576-8.388m4.934,11.349,13.2.123M358.279,336a.337.337,0,0,0,.31-.358c-.839-12.605,4.036-33.251,11.857-50.2,5-10.831,24.591-32.118,24.8-32.332a.337.337,0,0,0,0-.476.331.331,0,0,0-.47,0c-.2.214-19.87,21.581-24.912,32.508-7.965,17.358-12.777,37.629-11.921,50.539a.342.342,0,0,0,.337.315ZM374.268,278.5a.337.337,0,0,0,.315-.353l-1.278-21.624a.331.331,0,0,0-.353-.315.337.337,0,0,0-.315.353l1.3,21.613a.331.331,0,0,0,.331.315Zm-3.988,7.1a.337.337,0,0,0,.171-.438l-8.217-18.587a.333.333,0,1,0-.609.267l8.211,18.587a.337.337,0,0,0,.3.2.332.332,0,0,0,.16-.032Zm1.422-2.566,19.667-2.812a.337.337,0,1,0-.091-.663l-19.667,2.812a.332.332,0,1,0,.043.663Zm-5.608,12.547a.337.337,0,0,0,.059-.47l-10.66-13.7a.337.337,0,0,0-.535.412l10.681,13.717a.332.332,0,0,0,.262.128.337.337,0,0,0,.214-.091Zm16.658-3.7a.337.337,0,0,0-.321-.347l-14.653-.743a.337.337,0,0,0-.032.668l14.68.743h0a.337.337,0,0,0,.348-.321Zm-6.912,10.873a.331.331,0,0,0-.3-.369l-11.226-1.107a.331.331,0,0,0-.363.3.337.337,0,0,0,.3.363l11.226,1.112h.032a.331.331,0,0,0,.353-.3Zm-14.086,5.795a.337.337,0,0,0,.1-.465L356.3,299.7a.342.342,0,0,0-.465-.091.337.337,0,0,0-.1.465l5.549,8.388a.348.348,0,0,0,.283.15.321.321,0,0,0,.2-.059Zm12.734,2.807a.342.342,0,0,0-.331-.337l-13.2-.123h0a.331.331,0,0,0-.331.331.326.326,0,0,0,.331.337l13.2.123h0a.337.337,0,0,0,.353-.331ZM356.777,331.1a13.048,13.048,0,0,1,9.045-7.741.337.337,0,0,0,.257-.4.342.342,0,0,0-.4-.251,13.734,13.734,0,0,0-9.532,8.174.342.342,0,0,0,.208.428h.107a.331.331,0,0,0,.337-.208Zm1.5,4.9a.337.337,0,0,0,.31-.358c-.839-12.605,4.036-33.251,11.857-50.2,5-10.831,24.591-32.118,24.8-32.332a.337.337,0,0,0,0-.476.331.331,0,0,0-.47,0c-.2.214-19.87,21.581-24.912,32.508-7.965,17.358-12.777,37.629-11.921,50.539a.342.342,0,0,0,.337.315ZM374.268,278.5a.337.337,0,0,0,.315-.353l-1.278-21.624a.331.331,0,0,0-.353-.315.337.337,0,0,0-.315.353l1.3,21.613a.331.331,0,0,0,.331.315Zm-3.988,7.1a.337.337,0,0,0,.171-.438l-8.217-18.587a.333.333,0,1,0-.609.267l8.211,18.587a.337.337,0,0,0,.3.2.332.332,0,0,0,.16-.032Zm1.422-2.566,19.667-2.812a.337.337,0,1,0-.091-.663l-19.667,2.812a.332.332,0,1,0,.043.663Zm-5.608,12.547a.337.337,0,0,0,.059-.47l-10.66-13.7a.337.337,0,0,0-.535.412l10.681,13.717a.332.332,0,0,0,.262.128.337.337,0,0,0,.214-.091Zm16.658-3.7a.337.337,0,0,0-.321-.347l-14.653-.743a.337.337,0,0,0-.032.668l14.68.743h0a.337.337,0,0,0,.348-.321Zm-6.912,10.873a.331.331,0,0,0-.3-.369l-11.226-1.107a.331.331,0,0,0-.364.3.337.337,0,0,0,.3.363l11.226,1.112h.032a.331.331,0,0,0,.353-.3Zm-14.086,5.795a.337.337,0,0,0,.1-.465L356.3,299.7a.342.342,0,0,0-.465-.091.337.337,0,0,0-.1.465l5.549,8.388a.348.348,0,0,0,.283.15.321.321,0,0,0,.2-.059Zm12.734,2.807a.342.342,0,0,0-.331-.337l-13.2-.123h0a.331.331,0,0,0-.331.331.326.326,0,0,0,.331.337l13.2.123h0a.337.337,0,0,0,.353-.331ZM356.777,331.1a13.047,13.047,0,0,1,9.045-7.741.337.337,0,0,0,.257-.4.342.342,0,0,0-.4-.251,13.734,13.734,0,0,0-9.532,8.174.342.342,0,0,0,.208.428h.107a.331.331,0,0,0,.337-.208Z" transform="translate(-346.66 -244.336)" fill="#c192da"/>
      <path id="Path_867" data-name="Path 867" d="M374.273,278.172l-1.3-21.613M370.163,285.3l-8.211-18.587m29.4,13.183-19.678,2.823m-5.768,12.6-10.654-13.669m12.525,9.478,14.68.738M364.3,301.613l11.226,1.112m-13.937,5.549-5.576-8.388m4.934,11.349,13.2.123M358.279,336a.337.337,0,0,0,.31-.358c-.839-12.605,4.036-33.251,11.857-50.2,5-10.831,24.591-32.118,24.8-32.332a.337.337,0,0,0,0-.476.331.331,0,0,0-.47,0c-.2.214-19.87,21.581-24.912,32.508-7.965,17.358-12.777,37.629-11.921,50.539a.342.342,0,0,0,.337.315ZM374.268,278.5a.337.337,0,0,0,.315-.353l-1.278-21.624a.331.331,0,0,0-.353-.315.337.337,0,0,0-.315.353l1.3,21.613a.331.331,0,0,0,.331.315Zm-3.988,7.1a.337.337,0,0,0,.171-.438l-8.217-18.587a.333.333,0,1,0-.609.267l8.211,18.587a.337.337,0,0,0,.3.2.332.332,0,0,0,.16-.032Zm1.422-2.566,19.667-2.812a.337.337,0,1,0-.091-.663l-19.667,2.812a.332.332,0,1,0,.043.663Zm-5.608,12.547a.337.337,0,0,0,.059-.47l-10.66-13.7a.337.337,0,0,0-.535.412l10.681,13.717a.332.332,0,0,0,.262.128.337.337,0,0,0,.214-.091Zm16.658-3.7a.337.337,0,0,0-.321-.347l-14.653-.743a.337.337,0,0,0-.032.668l14.68.743h0a.337.337,0,0,0,.348-.321Zm-6.912,10.873a.331.331,0,0,0-.3-.369l-11.226-1.107a.331.331,0,0,0-.363.3.337.337,0,0,0,.3.363l11.226,1.112h.032a.331.331,0,0,0,.353-.3Zm-14.086,5.795a.337.337,0,0,0,.1-.465L356.3,299.7a.342.342,0,0,0-.465-.091.337.337,0,0,0-.1.465l5.549,8.388a.348.348,0,0,0,.283.15.321.321,0,0,0,.2-.059Zm12.734,2.807a.342.342,0,0,0-.331-.337l-13.2-.123h0a.331.331,0,0,0-.331.331.326.326,0,0,0,.331.337l13.2.123h0a.337.337,0,0,0,.353-.331ZM356.777,331.1a13.048,13.048,0,0,1,9.045-7.741.337.337,0,0,0,.257-.4.342.342,0,0,0-.4-.251,13.734,13.734,0,0,0-9.532,8.174.342.342,0,0,0,.208.428h.107a.331.331,0,0,0,.337-.208Zm1.5,4.9a.337.337,0,0,0,.31-.358c-.839-12.605,4.036-33.251,11.857-50.2,5-10.831,24.591-32.118,24.8-32.332a.337.337,0,0,0,0-.476.331.331,0,0,0-.47,0c-.2.214-19.87,21.581-24.912,32.508-7.965,17.358-12.777,37.629-11.921,50.539a.342.342,0,0,0,.337.315ZM374.268,278.5a.337.337,0,0,0,.315-.353l-1.278-21.624a.331.331,0,0,0-.353-.315.337.337,0,0,0-.315.353l1.3,21.613a.331.331,0,0,0,.331.315Zm-3.988,7.1a.337.337,0,0,0,.171-.438l-8.217-18.587a.333.333,0,1,0-.609.267l8.211,18.587a.337.337,0,0,0,.3.2.332.332,0,0,0,.16-.032Zm1.422-2.566,19.667-2.812a.337.337,0,1,0-.091-.663l-19.667,2.812a.332.332,0,1,0,.043.663Zm-5.608,12.547a.337.337,0,0,0,.059-.47l-10.66-13.7a.337.337,0,0,0-.535.412l10.681,13.717a.332.332,0,0,0,.262.128.337.337,0,0,0,.214-.091Zm16.658-3.7a.337.337,0,0,0-.321-.347l-14.653-.743a.337.337,0,0,0-.032.668l14.68.743h0a.337.337,0,0,0,.348-.321Zm-6.912,10.873a.331.331,0,0,0-.3-.369l-11.226-1.107a.331.331,0,0,0-.364.3.337.337,0,0,0,.3.363l11.226,1.112h.032a.331.331,0,0,0,.353-.3Zm-14.086,5.795a.337.337,0,0,0,.1-.465L356.3,299.7a.342.342,0,0,0-.465-.091.337.337,0,0,0-.1.465l5.549,8.388a.348.348,0,0,0,.283.15.321.321,0,0,0,.2-.059Zm12.734,2.807a.342.342,0,0,0-.331-.337l-13.2-.123h0a.331.331,0,0,0-.331.331.326.326,0,0,0,.331.337l13.2.123h0a.337.337,0,0,0,.353-.331ZM356.777,331.1a13.047,13.047,0,0,1,9.045-7.741.337.337,0,0,0,.257-.4.342.342,0,0,0-.4-.251,13.734,13.734,0,0,0-9.532,8.174.342.342,0,0,0,.208.428h.107a.331.331,0,0,0,.337-.208Z" transform="translate(-346.66 -244.336)" fill="#c192da" opacity="0.2"/>
      <path id="Path_868" data-name="Path 868" d="M364.384,391.03H349.25v3.133h1.32l2.732,17.091h7.03l2.732-17.091h1.32Z" transform="translate(-344.036 -308.793)" fill="#c192da"/>
      <path id="Path_869" data-name="Path 869" d="M364.384,391.03H349.25v3.133h1.32l2.732,17.091h7.03l2.732-17.091h1.32Z" transform="translate(-344.036 -308.793)" fill="#c192da" opacity="0.3"/>
    </g>
    <g id="freepik--Character--inject-1--inject-6" transform="translate(87.329 230.535)">
      <path id="Path_870" data-name="Path 870" d="M97.226,204.056l-17.6-5.747-1.566-4.138-3.576-.112-6.49-1.23.78,1.342,8.168,5.929,2.015,1.005,18.411,9.617Z" transform="translate(-63.885 -150.705)" fill="#fff" stroke="#263238" stroke-miterlimit="10" stroke-width="1.004"/>
      <path id="Path_871" data-name="Path 871" d="M82.44,194.465l-1.679-1.005-3.352,1.23.556.668Z" transform="translate(-68.269 -150.998)" fill="#fff" stroke="#263238" stroke-linejoin="round" stroke-width="1.004"/>
      <path id="Path_872" data-name="Path 872" d="M97.226,204.056l-17.6-5.747-1.566-4.138-3.576-.112-6.49-1.23.78,1.342,8.168,5.929,2.015,1.005,18.411,9.617Z" transform="translate(-63.885 -150.705)" fill="#fff"/>
      <g id="Group_953" data-name="Group 953" transform="translate(4.105 42.125)" clip-path="url(#clip-path)">
        <path id="Path_873" data-name="Path 873" d="M97.226,204.056l-17.6-5.747-1.566-4.138-3.576-.112-6.49-1.23.78,1.342,8.168,5.929,2.015,1.005,18.411,9.617Z" transform="translate(-67.99 -192.83)" fill="#e0bfea" stroke="#263238" stroke-miterlimit="10" stroke-width="1.004" opacity="0.5"/>
      </g>
      <path id="Path_875" data-name="Path 875" d="M97.226,204.056l-17.6-5.747-1.566-4.138-3.576-.112-6.49-1.23.78,1.342,8.168,5.929,2.015,1.005,18.411,9.617Z" transform="translate(-63.885 -150.705)" fill="none" stroke="#263238" stroke-miterlimit="10" stroke-width="1.004"/>
      <path id="Path_876" data-name="Path 876" d="M82.44,194.465l-1.679-1.005-3.352,1.23.556.668Z" transform="translate(-68.269 -150.998)" fill="#fff"/>
      <g id="Group_954" data-name="Group 954" transform="translate(9.141 42.462)" clip-path="url(#clip-path-2)">
        <path id="Path_877" data-name="Path 877" d="M82.44,194.465l-1.679-1.005-3.352,1.23.556.668Z" transform="translate(-77.41 -193.46)" fill="#78e44e" stroke="#263238" stroke-linejoin="round" stroke-width="1.004" opacity="0.5"/>
      </g>
      <path id="Path_879" data-name="Path 879" d="M82.44,194.465l-1.679-1.005-3.352,1.23.556.668Z" transform="translate(-68.269 -150.998)" fill="none" stroke="#263238" stroke-linejoin="round" stroke-width="1.004"/>
      <path id="Path_880" data-name="Path 880" d="M124.228,142.983a9.344,9.344,0,0,0,.406,3.951,76.471,76.471,0,0,0,4.448,6.779l-7.035,5.64s-2.919-5.88-3.475-6.832a9.691,9.691,0,0,1,.588-7.981C120.973,141.6,123.582,140.813,124.228,142.983Z" transform="translate(-87.15 -126.93)" fill="#fff"/>
      <g id="Group_955" data-name="Group 955" transform="translate(30.828 14.817)" clip-path="url(#clip-path-3)">
        <path id="Path_881" data-name="Path 881" d="M121.481,158.52l3.052,6.329-1.625,2.315-3.069-5.479Z" transform="translate(-118.845 -149.553)" fill="#e0bfea" opacity="0.5"/>
      </g>
      <path id="Path_883" data-name="Path 883" d="M124.228,142.983a9.344,9.344,0,0,0,.406,3.951,76.471,76.471,0,0,0,4.448,6.779l-7.035,5.64s-2.919-5.88-3.475-6.832a9.691,9.691,0,0,1,.588-7.981C120.973,141.6,123.582,140.813,124.228,142.983Z" transform="translate(-87.15 -126.93)" fill="none" stroke="#263238" stroke-miterlimit="10" stroke-width="1.004"/>
      <path id="Path_884" data-name="Path 884" d="M116.056,128.936c-.433-2.673-3.5-8.11-8.356-7.9a11.817,11.817,0,0,0-6,1.55,17.641,17.641,0,0,0-3.1,2.32c-2.374,2.849-3.207,3.63-2.748,5.811a6.543,6.543,0,0,0,.4,2.555A20.371,20.371,0,0,0,98.11,137.4c-.192.9-.695,3.288-.722,3.833s1.6.166,2.427-.043c1.529,3.421,4.33,5.795,5.2,6.068,1.518.476,3.918-2.021,5.191-3.956s.31-4.111.315-4.977,2.86-2.769,3.918-3.373S116.484,131.6,116.056,128.936Z" transform="translate(-76.797 -117.287)" fill="#fff"/>
      <g id="Group_956" data-name="Group 956" transform="translate(18.936 3.742)" clip-path="url(#clip-path-4)">
        <path id="Path_885" data-name="Path 885" d="M95.891,132.909a6.544,6.544,0,0,0,.4,2.555,20.37,20.37,0,0,0,1.855,4.132c-.192.9-.695,3.288-.722,3.833s1.6.166,2.427-.043c1.529,3.421,4.33,5.795,5.2,6.067,1.518.476,3.918-2.021,5.191-3.956a3.9,3.9,0,0,0,.6-1.6c-.069-.251-.118-.406-.118-.406s-.716,2.753-2.138,2.395-3.6-3.208-4.811-4.191-.716-2.277-.957-3.742-3.833-2.753-4.074-3.592.6-4.314.6-4.314,1.363-1.818,1.069-1.069a5.089,5.089,0,0,0,.358,3.951,2.726,2.726,0,0,0,2.518,1.556l1.3-6.463-2.753-2.277-3.207,1.336C96.244,129.947,95.426,130.728,95.891,132.909Z" transform="translate(-95.749 -123.222)" fill="#e0bfea" opacity="0.5"/>
      </g>
      <path id="Path_887" data-name="Path 887" d="M116.056,128.936c-.433-2.673-3.5-8.11-8.356-7.9a11.817,11.817,0,0,0-6,1.55,17.641,17.641,0,0,0-3.1,2.32c-2.374,2.849-3.207,3.63-2.748,5.811a6.543,6.543,0,0,0,.4,2.555A20.371,20.371,0,0,0,98.11,137.4c-.192.9-.695,3.288-.722,3.833s1.6.166,2.427-.043c1.529,3.421,4.33,5.795,5.2,6.068,1.518.476,3.918-2.021,5.191-3.956s.31-4.111.315-4.977,2.86-2.769,3.918-3.373S116.484,131.6,116.056,128.936Z" transform="translate(-76.797 -117.287)" fill="none" stroke="#263238" stroke-miterlimit="10" stroke-width="1"/>
      <path id="Path_888" data-name="Path 888" d="M101.42,148.64l.535,1.529s1.149.38,2.55-1.149" transform="translate(-79.443 -130.138)" fill="none" stroke="#263238" stroke-linecap="round" stroke-miterlimit="10" stroke-width="1"/>
      <path id="Path_889" data-name="Path 889" d="M108.81,160.334s1.272-.128,1.786-1.914" transform="translate(-82.883 -134.69)" fill="none" stroke="#263238" stroke-linecap="round" stroke-miterlimit="10" stroke-width="1"/>
      <path id="Path_890" data-name="Path 890" d="M99.75,145.249s.38-1.149,2.673-1.149" transform="translate(-78.666 -128.025)" fill="none" stroke="#263238" stroke-linecap="round" stroke-miterlimit="10" stroke-width="1"/>
      <path id="Path_891" data-name="Path 891" d="M105.793,115.65a37.987,37.987,0,0,0-5.03-.385s-5.036-2.9-9.874.192-2.513,8.516-2.513,9.868-1.55,1.358-.583,3.1,4.239.78,4.239.78a4.651,4.651,0,0,1,1.748-3.395c1.743-1.352,3.133-1.647,3.71-1.256,0,0-.385,2.9.192,4.063a11.379,11.379,0,0,0,2.518.968c.583,0-.38.818,1.55,1.545a2.416,2.416,0,0,0,2.138-.251c.283-1.176.9-2.946,2.058-2.534,1.695.6,3.24,4.774.946,6.2,2.758.5,6.1-4.378,6.3-8.826S108.658,116.152,105.793,115.65Z" transform="translate(-72.953 -114.03)" fill="#263238"/>
      <path id="Path_892" data-name="Path 892" d="M106.37,129.995s1.422-.764,3.165.871a10.057,10.057,0,0,0,9.622,2.619" transform="translate(-81.747 -121.377)" fill="none" stroke="#fff" stroke-linecap="round" stroke-linejoin="round" stroke-width="0.5"/>
      <path id="Path_893" data-name="Path 893" d="M106,126.369a3.445,3.445,0,0,1,2.614-1.529c1.636,0,5.458,2.293,8.511,2.293" transform="translate(-81.575 -119.061)" fill="none" stroke="#fff" stroke-linecap="round" stroke-linejoin="round" stroke-width="0.5"/>
      <path id="Path_894" data-name="Path 894" d="M99.932,132.2s-1.855-2.288-3.6-.433a2.971,2.971,0,0,0-.636,3.608" transform="translate(-76.619 -121.948)" fill="none" stroke="#fff" stroke-linecap="round" stroke-linejoin="round" stroke-width="0.5"/>
      <path id="Path_895" data-name="Path 895" d="M90.05,129.975a5.667,5.667,0,0,0,1.85-3.71c.219-2.4,3.5-4.474,5.565-2.507" transform="translate(-74.152 -118.193)" fill="none" stroke="#fff" stroke-linecap="round" stroke-linejoin="round" stroke-width="0.5"/>
      <path id="Path_896" data-name="Path 896" d="M96.37,118.713a3.73,3.73,0,0,1,6,.871" transform="translate(-77.093 -115.66)" fill="none" stroke="#fff" stroke-linecap="round" stroke-linejoin="round" stroke-width="0.5"/>
      <path id="Path_897" data-name="Path 897" d="M130.923,410.81s2.015,3.133,1.791,5.148l-.219,2.015S125.1,420,123.535,420s-9.858-.786-9.858-.786l-.358-1.422a.47.47,0,0,1,.257-.535l7.393-3.448,2.331-2.55Z" transform="translate(-84.975 -252.157)" fill="#fff" stroke="#263238" stroke-miterlimit="10" stroke-width="1.004"/>
      <path id="Path_898" data-name="Path 898" d="M124.757,423.44c2,.155,5.811-1.069,8.019-1.85l-.155,1.4s-7.42,2.026-8.986,2.026-9.858-.786-9.858-.786l-.257-1.016C114.846,423.22,122.105,423.237,124.757,423.44Z" transform="translate(-85.075 -257.174)" fill="#78e44e" stroke="#263238" stroke-miterlimit="10" stroke-width="1.004"/>
      <path id="Path_899" data-name="Path 899" d="M117.935,416.213,107.174,420.9s-.919,2.3,0,2.764,20.966,0,20.966,0,1.385-3.641-.8-6.084S117.935,416.213,117.935,416.213Z" transform="translate(-81.931 -254.561)" fill="#fff" stroke="#263238" stroke-miterlimit="10" stroke-width="1.004"/>
      <path id="Path_900" data-name="Path 900" d="M128.14,429.056s-20.047.46-20.966,0c-.444-.225-.46-.871-.358-1.486h21.677a8.155,8.155,0,0,1-.353,1.486Z" transform="translate(-81.931 -259.957)" fill="#9a5dba" stroke="#263238" stroke-miterlimit="10" stroke-width="1.004"/>
      <path id="Path_901" data-name="Path 901" d="M113.451,262.53s-2.812,12.461-3.876,20.255-1.689,23.409-1.465,25.2,11.419,31.8,11.419,31.8l1.117,2.673,7.837-1.566S124.9,329.47,123.56,323.2s-4.277-16.572-4.277-18.363,6.95-35.993,7.447-38.239a23.5,23.5,0,0,1,2.753-5.693l-15.006-.3Z" transform="translate(-82.536 -182.246)" fill="#26242e" stroke="#263238" stroke-miterlimit="10" stroke-width="1.004"/>
      <path id="Path_902" data-name="Path 902" d="M117.155,260.85s-1.647,11.381-.968,19.293,2.138,24.757,2.138,27.264,4.047,17.481,4.277,22.185a56.785,56.785,0,0,1-.144,10.157l-.241,2.464s4.72.674,5.752.968a12.776,12.776,0,0,0,3.651.4,74.928,74.928,0,0,0,1.716-13.99c0-6.436-1.427-19.683-2.138-25.051s1.529-26.072,2.8-29.937,4.052-12.049,2.181-16.23S117.155,260.85,117.155,260.85Z" transform="translate(-86.24 -180.567)" fill="#26242e" stroke="#263238" stroke-miterlimit="10" stroke-width="1.004"/>
      <path id="Path_903" data-name="Path 903" d="M137.6,255.65l-.171,5.089s-3.047.6-7.153,1.315c-3.389.588-11.9-.155-14.765-.433a.994.994,0,0,1-.9-1.069l.278-4.6Z" transform="translate(-85.58 -179.942)" fill="#263238"/>
      <path id="Path_904" data-name="Path 904" d="M125.868,160.75s-4.811,5.2-6.623,8.436-2.529,8.19-3.207,12.092,1.16,13.065.641,17.272L115.037,211.8s-.353.9.829,1.882,6.95,1.342,12.162,1.6c1.9.1,7.586-1.128,8.516-1.187,1.123-.07,1.16-1.5,1.208-2.619.225-5.276,1.176-19.341,1.8-25.467C140.841,173.521,133.79,161.461,125.868,160.75Z" transform="translate(-85.758 -135.774)" fill="#fff" stroke="#263238" stroke-miterlimit="10" stroke-width="1.004"/>
      <path id="Path_905" data-name="Path 905" d="M139.785,212.322c.214-2.774.428-5.292.615-7.1.053-.535.086-1.069.112-1.6l-12.782,2.138-10.98-3.742a60.827,60.827,0,0,0,.385,6.8l10.772,3.015Z" transform="translate(-86.578 -154.977)" fill="#9a5dba"/>
      <path id="Path_906" data-name="Path 906" d="M131.364,161.73c-.727.807-2.17,2.448-3.544,4.191l8.115,8.249,2.673-1.069Z" transform="translate(-91.731 -136.23)" fill="#9a5dba"/>
      <path id="Path_907" data-name="Path 907" d="M128.443,160.75s-4.811,5.2-6.623,8.436a16.405,16.405,0,0,0-1.3,3.09L130.2,161.1A9.089,9.089,0,0,0,128.443,160.75Z" transform="translate(-88.333 -135.774)" fill="#263238"/>
      <path id="Path_908" data-name="Path 908" d="M117.65,188.848l10.5,3.453,12.75-1.465a29.9,29.9,0,0,0-2.09-9.254l-10.28,4.122-9.189-4.164a48.364,48.364,0,0,0-1.689,7.308Z" transform="translate(-86.997 -145.45)" fill="#26242e"/>
      <path id="Path_909" data-name="Path 909" d="M134.7,243.886a32.508,32.508,0,0,1-15.9-1.3l-2.561-.877-.8,6.415,2.919.818a44.012,44.012,0,0,0,17.069,1.315l2.358-.283a2.138,2.138,0,0,0,.2-.829c.064-1.427.176-3.5.321-5.88Z" transform="translate(-85.969 -173.454)" fill="#9a5dba"/>
      <path id="Path_910" data-name="Path 910" d="M137.077,227.332a32.385,32.385,0,0,1-15.9-1.3l-3.261-1.117a21.063,21.063,0,0,1-.048,3.5l-.38,3.085,3.25.909a43.991,43.991,0,0,0,17.064,1.32l1.6-.192c.134-2.138.289-4.416.454-6.666Z" transform="translate(-86.923 -165.635)" fill="#26242e"/>
      <rect id="Rectangle_4994" data-name="Rectangle 4994" width="13.263" height="0.711" transform="matrix(-0.779, -0.627, 0.627, -0.779, 10.336, 47.4)" fill="#263238"/>
      <path id="Path_911" data-name="Path 911" d="M107.78,171.54s3.79,2.582,3.876,8.682a60.51,60.51,0,0,1-.855,9.548c-.615,4.378-4.432,18.636-7.4,20.368s-7.586-1.54-7.586-1.54L73.5,193.784,68.1,189.427l-2.673-5.046.839-1.6,6.581,5.046-3.544-3.277.695-.882,1.283.893,3.742,1.4.818,5.346,1.155.791,21.346,7.8s-.267-11.488-.069-13.685.47-7.719,2.823-11.723" transform="translate(-62.693 -140.796)" fill="#fff"/>
      <g id="Group_957" data-name="Group 957" transform="translate(2.737 30.744)" clip-path="url(#clip-path-5)">
        <path id="Path_912" data-name="Path 912" d="M98.232,201c0,3.967.134,8.682.134,8.682L77.041,201.91l-1.155-.791-.818-5.346-3.742-1.4-1.278-.909-.695.882,3.534,3.261-6.581-5.046-.8,1.577,2.673,5.046,5.394,4.384,1.358.9,29.482,9.5Z" transform="translate(-65.467 -181.323)" fill="#e0bfea" opacity="0.5"/>
      </g>
      <path id="Path_914" data-name="Path 914" d="M107.78,171.54s3.79,2.582,3.876,8.682a60.51,60.51,0,0,1-.855,9.548c-.615,4.378-4.432,18.636-7.4,20.368s-7.586-1.54-7.586-1.54L73.5,193.784,68.1,189.427l-2.673-5.046.839-1.6,6.581,5.046-3.544-3.277.695-.882,1.283.893,3.742,1.4.818,5.346,1.155.791,21.346,7.8s-.267-11.488-.069-13.685.47-7.719,2.823-11.723" transform="translate(-62.693 -140.796)" fill="none" stroke="#263238" stroke-miterlimit="10" stroke-width="1.004"/>
      <path id="Path_915" data-name="Path 915" d="M125.6,198.537l8.147,5.88,2.112-3.742s1.459-1.149,1.673-2.015-.059-2.272.16-3.138,1.31-1.679,1.411-3.774,0-3.844,0-3.844,1.764-7.254,1.572-10.408-3.234-8.73-5.672-8.853a8.34,8.34,0,0,0-8.067,3.967c-2.459,3.721-1.957,14.583-2.341,15.262s.15,4.031.15,4.031a1.876,1.876,0,0,0-.748,1.352,11.007,11.007,0,0,0,.9,3.015Z" transform="translate(-89.951 -139.439)" fill="#fff" stroke="#263238" stroke-miterlimit="10" stroke-width="1.004"/>
      <path id="Path_916" data-name="Path 916" d="M125.218,199.41a15.085,15.085,0,0,1-.208,2.785c-.342.609.048,3.363.134,3.924a31.733,31.733,0,0,0,14.172,1.069,5.287,5.287,0,0,0,.182-1.139,38.42,38.42,0,0,0,0-3.844s.155-.647.369-1.63A51.6,51.6,0,0,1,125.218,199.41Z" transform="translate(-90.358 -153.767)" fill="#9a5dba"/>
      <path id="Path_917" data-name="Path 917" d="M127.628,177.19a19.513,19.513,0,0,0-1.438,6.174,31.845,31.845,0,0,0,15.241,1.855,20.391,20.391,0,0,0,.273-3.742,10.414,10.414,0,0,0-.695-2.887A52.85,52.85,0,0,1,127.628,177.19Z" transform="translate(-90.972 -143.426)" fill="#26242e"/>
      <path id="Path_918" data-name="Path 918" d="M125.68,220.45l.69,2.208,8.147,5.88,2.112-3.742s1.459-1.149,1.673-2.015a2.374,2.374,0,0,0,.069-.46,49.818,49.818,0,0,1-12.691-1.871Z" transform="translate(-90.735 -163.56)" fill="#263238"/>
      <path id="Path_919" data-name="Path 919" d="M133.538,348.864s.182-4.629,1.069-11.4-1.246-16.38-1.6-17.983.182-5.164-.176-6.415a28.64,28.64,0,0,1-1.069-12.776c1.021-6.19,1.85-22.554,1.85-22.554a11.081,11.081,0,0,1-3.325-4.811c-.754-2.721-.176-3.576-.176-3.576" transform="translate(-92.696 -186.319)" fill="none" stroke="#263238" stroke-miterlimit="10" stroke-width="1.004"/>
      <line id="Line_217" data-name="Line 217" x1="0.989" y2="5.474" transform="translate(41.045 83.283)" fill="none" stroke="#263238" stroke-miterlimit="10" stroke-width="1.004"/>
    </g>
  </g>
</svg>
