<svg xmlns="http://www.w3.org/2000/svg" width="20.72" height="20.72" viewBox="0 0 20.72 20.72">
  <path id="smile" d="M10.36,20.72A10.36,10.36,0,0,1,3.034,3.034,10.36,10.36,0,0,1,17.686,17.686,10.292,10.292,0,0,1,10.36,20.72Zm0-19.1A8.741,8.741,0,1,0,19.1,10.36,8.751,8.751,0,0,0,10.36,1.619Zm3.793,10.529a.809.809,0,0,0-1.117.248,3.562,3.562,0,0,1-2.717,1.568A3.562,3.562,0,0,1,7.6,12.4a.809.809,0,0,0-1.366.869,5.2,5.2,0,0,0,4.082,2.317A5.2,5.2,0,0,0,14.4,13.266a.809.809,0,0,0-.248-1.117ZM6.8,6.677A1.012,1.012,0,1,1,5.787,7.689,1.012,1.012,0,0,1,6.8,6.677Zm6.07,1.012a1.012,1.012,0,1,0,1.012-1.012A1.012,1.012,0,0,0,12.869,7.689Z" transform="translate(0)" fill="#892bb9"/>
</svg>
