<svg xmlns="http://www.w3.org/2000/svg" width="15.414" height="15.414" viewBox="0 0 15.414 15.414">
  <g id="Group_952" data-name="Group 952" transform="translate(-316.596 -629.793)">
    <g id="Lock" transform="translate(319.969 631.267)">
      <path id="Stroke_1" data-name="Stroke 1" d="M5.835,4.285V2.911A2.917,2.917,0,0,0,0,2.9V4.285" transform="translate(1.952 0)" fill="none" stroke="#9a5dba" stroke-linecap="round" stroke-linejoin="round" stroke-miterlimit="10" stroke-width="1"/>
      <path id="Stroke_3" data-name="Stroke 3" d="M7.314,7.6H2.426A2.426,2.426,0,0,1,0,5.169V2.426A2.426,2.426,0,0,1,2.426,0H7.314A2.426,2.426,0,0,1,9.739,2.426V5.169A2.426,2.426,0,0,1,7.314,7.6Z" transform="translate(0 4.239)" fill="none" stroke="#9a5dba" stroke-linecap="round" stroke-linejoin="round" stroke-miterlimit="10" stroke-width="1"/>
      <path id="Stroke_5" data-name="Stroke 5" d="M.5,0V1.421" transform="translate(4.37 7.326)" fill="none" stroke="#9a5dba" stroke-linecap="round" stroke-linejoin="round" stroke-miterlimit="10" stroke-width="1"/>
    </g>
    <path id="Path_432" data-name="Path 432" d="M14,0,0,14" transform="translate(317.303 630.5)" fill="none" stroke="#9a5dba" stroke-linecap="round" stroke-width="1"/>
  </g>
</svg>
