<svg xmlns="http://www.w3.org/2000/svg" width="22.275" height="16.67" viewBox="0 0 22.275 16.67">
  <g id="clouded" transform="translate(0 -64.419)">
    <g id="Group_35" data-name="Group 35" transform="translate(0 64.419)">
      <path id="Path_65" data-name="Path 65" d="M20.856,71.74a5.3,5.3,0,0,0-.36-1.926l1.779-1.027-.4-.7-.4-.7L19.69,68.417a5.331,5.331,0,0,0-3.346-1.943V64.419H14.73V66.47a5.285,5.285,0,0,0-1.543.482A5.972,5.972,0,0,0,4.312,71a5.073,5.073,0,0,0,.761,10.089h9.7a4.721,4.721,0,0,0,4.716-4.716,4.649,4.649,0,0,0-.1-.963q.152-.16.291-.332l1.782,1.029.4-.7.4-.7-1.777-1.026A5.3,5.3,0,0,0,20.856,71.74Zm-6.084,7.736h-9.7a3.46,3.46,0,0,1-.037-6.92l.745-.008.051-.743a4.359,4.359,0,0,1,8.707.305c0,.111,0,.223-.013.333l-.057.751.745.108a3.1,3.1,0,0,1-.443,6.174Zm3.893-5.75a4.747,4.747,0,0,0-2.518-1.863,5.947,5.947,0,0,0-1.516-3.73,3.714,3.714,0,0,1,4.034,5.593Z" transform="translate(0 -64.419)" fill="#892bb9"/>
    </g>
  </g>
</svg>
