<svg xmlns="http://www.w3.org/2000/svg" width="13.645" height="14.749" viewBox="0 0 13.645 14.749">
  <g id="Delete" transform="translate(0.75 0.75)">
    <path id="Stroke_1" data-name="Stroke 1" d="M10.163,0s-.389,4.824-.614,6.855A1.6,1.6,0,0,1,7.86,8.412c-1.869.034-3.739.036-5.607,0A1.586,1.586,0,0,1,.614,6.86C.387,4.811,0,0,0,0" transform="translate(0.991 4.811)" fill="none" stroke="#fff" stroke-linecap="round" stroke-linejoin="round" stroke-miterlimit="10" stroke-width="1.5"/>
    <path id="Stroke_3" data-name="Stroke 3" d="M12.145.5H0" transform="translate(0 1.999)" fill="none" stroke="#fff" stroke-linecap="round" stroke-linejoin="round" stroke-miterlimit="10" stroke-width="1.5"/>
    <path id="Stroke_5" data-name="Stroke 5" d="M7.465,2.5a1.18,1.18,0,0,1-1.157-.948L6.134.68A.917.917,0,0,0,5.248,0H2.217a.917.917,0,0,0-.886.68l-.174.871A1.18,1.18,0,0,1,0,2.5" transform="translate(2.34 0)" fill="none" stroke="#fff" stroke-linecap="round" stroke-linejoin="round" stroke-miterlimit="10" stroke-width="1.5"/>
  </g>
</svg>
