<svg xmlns="http://www.w3.org/2000/svg" width="15.414" height="15.414" viewBox="0 0 15.414 15.414">
  <g id="Group_953" data-name="Group 953" transform="translate(-293.793 -50.793)">
    <g id="Group_165" data-name="Group 165" transform="translate(-0.44 0.883)">
      <path id="Stroke_1" data-name="Stroke 1" d="M6.427,4.72V3.207A3.214,3.214,0,0,0,0,3.193V4.72" transform="translate(298.591 51.117)" fill="none" stroke="#fff" stroke-linecap="round" stroke-linejoin="round" stroke-miterlimit="10" stroke-width="1.5"/>
      <path id="Stroke_3" data-name="Stroke 3" d="M8.057,8.367H2.672A2.672,2.672,0,0,1,0,5.695V2.672A2.672,2.672,0,0,1,2.672,0H8.057a2.672,2.672,0,0,1,2.672,2.672V5.695A2.672,2.672,0,0,1,8.057,8.367Z" transform="translate(296.44 55.787)" fill="none" stroke="#fff" stroke-linecap="round" stroke-linejoin="round" stroke-miterlimit="10" stroke-width="1.5"/>
      <path id="Stroke_5" data-name="Stroke 5" d="M.5,0V1.565" transform="translate(301.305 59.188)" fill="none" stroke="#fff" stroke-linecap="round" stroke-linejoin="round" stroke-miterlimit="10" stroke-width="1.5"/>
    </g>
    <path id="Path_432" data-name="Path 432" d="M14,0,0,14" transform="translate(294.5 51.5)" fill="none" stroke="#fff" stroke-linecap="round" stroke-width="1"/>
  </g>
</svg>
